<?xml version="1.0" encoding="utf-8"?>
<!-- Generator: Adobe Illustrator 27.5.0, SVG Export Plug-In . SVG Version: 6.00 Build 0)  -->
<svg version="1.1" id="Layer_1" xmlns="http://www.w3.org/2000/svg" xmlns:xlink="http://www.w3.org/1999/xlink" x="0px" y="0px"
	 viewBox="0 0 1200 91.3" style="enable-background:new 0 0 1200 91.3;" xml:space="preserve">
<style type="text/css">
	.st0{fill:#003B5C;}
</style>
<g>
	<g>
		<path class="st0" d="M0,0.2l0,29.5l0,0.1l0,0c2.5,2.9,5.6,5.6,8.7,7.7c7.5,5.2,16.6,8.1,25.9,8.1h34.1c0-0.2,0-0.5,0-0.7
			c0.5-17.8,15-32.1,32.8-32.1h85.4c7,0,12.8-5.7,12.8-12.8l-98.3,0C81,0,63.3,13.5,57.7,32.9c-0.6-0.1-1.2-0.1-1.8-0.1H34.6
			c-10.2,0-19.7-4.6-25.9-12.5c-0.6-0.6-1.1-1.3-1.6-2.1C3.9,13.5,2.1,7.8,1.7,2C1.7,1,1,0.2,0,0.2z"/>
		<path class="st0" d="M399.9,91.3h-98.3c-20.3,0-38.1-13.4-43.7-32.9c-0.6,0.1-1.2,0.1-1.8,0.1h-21.3c-10.2,0-19.7,4.6-25.9,12.5
			c-0.6,0.6-1.1,1.3-1.6,2.1c-3.3,4.8-5.1,10.5-5.4,16.3c0,1-0.7,1.8-1.7,1.8v0c-1,0-1.7-0.8-1.7-1.8c-0.4-5.8-2.2-11.5-5.4-16.3
			c-0.5-0.7-1-1.5-1.6-2.1c-6.2-7.9-15.7-12.5-25.9-12.5h-21.3c-0.6,0-1.2,0-1.8-0.1c-5.6,19.5-23.3,32.9-43.7,32.9H0.5
			c0-7.1,5.8-12.8,12.8-12.8h85.4c17.8,0,32.3-14.3,32.8-32.1v-0.7h34.1c9.3,0,18.4,2.9,25.9,8.1c3.1,2.2,6.2,4.8,8.7,7.7v0
			c2.5-2.9,5.6-5.6,8.7-7.7c7.5-5.2,16.6-8.1,25.9-8.1h34.1v0.7c0.5,17.8,15,32.1,32.8,32.1h85.4C394.1,78.4,399.9,84.1,399.9,91.3z
			"/>
		<path class="st0" d="M798.1,1.9c-0.4,5.8-2.2,11.5-5.4,16.3c-0.5,0.7-1,1.5-1.6,2.1c-6.2,7.9-15.7,12.5-25.9,12.5h-21.3
			c-0.6,0-1.2,0-1.8,0.1C736.6,13.4,718.8,0,698.5,0h-98.3c0,7.1,5.8,12.8,12.8,12.8h85.4c17.8,0,32.3,14.3,32.8,32.1
			c0,0.2,0,0.5,0,0.7h34.1c9.3,0,18.4-2.9,25.9-8.1c3.1-2.2,6.2-4.8,8.7-7.7l0,0v-0.1V0.1C798.8,0.1,798.1,1,798.1,1.9z"/>
		<path class="st0" d="M599.6,0c0,7.1-5.8,12.8-12.8,12.8h-85.4c-17.8,0-32.3,14.3-32.8,32.1v0.7h-34.1c-9.3,0-18.4-2.9-25.9-8.1
			c-3.1-2.2-6.2-4.8-8.7-7.7v0c-2.5,2.9-5.6,5.6-8.7,7.7c-7.5,5.2-16.6,8.1-25.9,8.1h-34.1v-0.7c-0.5-17.8-15-32.1-32.8-32.1H213
			c-7,0-12.8-5.7-12.8-12.8h98.3c20.3,0,38.1,13.4,43.7,32.9c0.6-0.1,1.2-0.1,1.8-0.1h21.3c10.2,0,19.7-4.6,25.9-12.5
			c0.6-0.6,1.1-1.3,1.6-2.1c3.3-4.8,5.1-10.5,5.4-16.3c0-1,0.7-1.8,1.7-1.8v0c1,0,1.7,0.8,1.7,1.8c0.4,5.8,2.2,11.5,5.4,16.3
			c0.5,0.7,1,1.5,1.6,2.1c6.2,7.9,15.7,12.5,25.9,12.5h21.3c0.6,0,1.2,0,1.8,0.1C463.2,13.4,480.9,0,501.3,0H599.6z"/>
		<path class="st0" d="M799.3,91.3h-98.3c-20.3,0-38.1-13.4-43.7-32.9c-0.6,0.1-1.2,0.1-1.8,0.1h-21.3c-10.2,0-19.7,4.6-25.9,12.5
			c-0.6,0.6-1.1,1.3-1.6,2.1c-3.3,4.8-5.1,10.5-5.4,16.3c0,1-0.7,1.8-1.7,1.8v0c-1,0-1.7-0.8-1.7-1.8c-0.4-5.8-2.2-11.5-5.4-16.3
			c-0.5-0.7-1-1.5-1.6-2.1c-6.2-7.9-15.7-12.5-25.9-12.5h-21.3c-0.6,0-1.2,0-1.8-0.1c-5.6,19.5-23.3,32.9-43.7,32.9h-98.3
			c0-7.1,5.8-12.8,12.8-12.8h85.4c17.8,0,32.3-14.3,32.8-32.1v-0.7H565c9.3,0,18.4,2.9,25.9,8.1c3.1,2.2,6.2,4.8,8.7,7.7v0
			c2.5-2.9,5.6-5.6,8.7-7.7c7.5-5.2,16.6-8.1,25.9-8.1h34.1v0.7c0.5,17.8,15,32.1,32.8,32.1h85.4C793.5,78.4,799.3,84.1,799.3,91.3z
			"/>
	</g>
	<g>
		<path class="st0" d="M1198.3,2c-0.4,5.8-2.2,11.5-5.5,16.3c-0.5,0.7-1,1.5-1.6,2.1c-6.2,7.9-15.8,12.5-26.1,12.5h-21.4
			c-0.6,0-1.2,0-1.8,0.1c-5.6-19.5-23.5-32.9-44-32.9h-99c0,7.1,5.8,12.8,12.9,12.8h86c17.9,0,32.5,14.3,33,32.1c0,0.2,0,0.5,0,0.7
			h34.3c9.4,0,18.5-2.9,26.1-8.1c3.2-2.2,6.2-4.8,8.8-7.7l0,0v-0.1V0.2C1199,0.2,1198.3,1,1198.3,2z"/>
		<path class="st0" d="M799.3,0.1v29.5v0.1l0,0c2.5,2.9,5.6,5.6,8.7,7.7c7.5,5.2,16.6,8.1,25.9,8.1H868c0-0.2,0-0.5,0-0.7
			c0.5-17.8,15-32.1,32.8-32.1h85.4c7,0,12.8-5.7,12.8-12.8l-98.3,0c-20.3,0-38.1,13.4-43.7,32.9c-0.6-0.1-1.2-0.1-1.8-0.1h-21.3
			c-10.2,0-19.7-4.6-25.9-12.5c-0.6-0.6-1.1-1.3-1.6-2.1c-3.3-4.8-5.1-10.5-5.4-16.3C801,1,800.2,0.1,799.3,0.1z"/>
		<path class="st0" d="M800.6,91.3H899c20.3,0,38.1-13.4,43.7-32.9c0.6,0.1,1.2,0.1,1.8,0.1h21.3c10.2,0,19.7,4.6,25.9,12.5
			c0.6,0.6,1.1,1.3,1.6,2.1c3.3,4.8,5.1,10.5,5.4,16.3c0,1,0.7,1.8,1.7,1.8v0c1,0,1.7-0.8,1.7-1.8c0.4-5.8,2.2-11.5,5.4-16.3
			c0.5-0.7,1-1.5,1.6-2.1c6.2-7.9,15.7-12.5,25.9-12.5h21.3c0.6,0,1.2,0,1.8-0.1c5.6,19.5,23.3,32.9,43.7,32.9h98.3
			c0-7.1-5.8-12.8-12.8-12.8h-85.4c-17.8,0-32.3-14.3-32.8-32.1v-0.7h-34.1c-9.3,0-18.4,2.9-25.9,8.1c-3.1,2.2-6.2,4.8-8.7,7.7v0
			c-2.5-2.9-5.6-5.6-8.7-7.7c-7.5-5.2-16.6-8.1-25.9-8.1h-34.1v0.7c-0.5,17.8-15,32.1-32.8,32.1h-85.4
			C806.4,78.5,800.6,84.2,800.6,91.3z"/>
	</g>
</g>
</svg>
