<?xml version="1.0" encoding="utf-8"?>
<!-- Generator: Adobe Illustrator 27.5.0, SVG Export Plug-In . SVG Version: 6.00 Build 0)  -->
<svg version="1.1" id="icons" xmlns="http://www.w3.org/2000/svg" xmlns:xlink="http://www.w3.org/1999/xlink" x="0px" y="0px"
	 viewBox="0 0 261.5 150.3" style="enable-background:new 0 0 261.5 150.3;" xml:space="preserve">
<style type="text/css">
	.st0{fill:#E4ECD2;}
	.st1{fill:#FFFFFF;}
	.st2{fill:none;stroke:#003B5C;stroke-width:1.5;stroke-linecap:round;stroke-miterlimit:10;}
	.st3{fill:none;stroke:#003B5C;stroke-width:1.5;stroke-miterlimit:10;}
</style>
<g>
	<g>
		<path class="st0" d="M95.7,98.9h-0.2c-0.7-2.4-2.9-4.1-5.4-4.1c-1.1,0-2.2,0.3-3.1,0.9c-0.6-3.7-3.8-6.6-7.7-6.6
			c-3.5,0-6.4,2.3-7.4,5.5c-0.4-0.1-0.9-0.2-1.4-0.2c-2.7,0-4.9,1.9-5.3,4.5h-0.9c-2.2,0-4,1.8-4,4v0.3c0,2.2,1.8,4,4,4h31.3
			c2.2,0,4-1.8,4-4v-0.3C99.7,100.7,97.9,98.9,95.7,98.9z"/>
		<path class="st1" d="M92.1,99.9h-0.1c-0.6-2.1-2.5-3.6-4.8-3.6c-1,0-1.9,0.3-2.7,0.8c-0.5-3.3-3.3-5.8-6.8-5.8
			c-3.1,0-5.7,2-6.5,4.8c-0.4-0.1-0.8-0.2-1.2-0.2c-2.3,0-4.3,1.7-4.6,4h-0.8c-1.9,0-3.5,1.6-3.5,3.5v0.3c0,1.9,1.6,3.5,3.5,3.5
			h27.6c1.9,0,3.5-1.6,3.5-3.5v-0.3C95.6,101.5,94,99.9,92.1,99.9L92.1,99.9z"/>
		<path class="st2" d="M84.4,95.1c-1.1-1.8-3.1-2.9-5.4-2.9c-1.2,0-2.3,0.3-3.3,0.9"/>
		<path class="st2" d="M87.1,95.7c-0.6-3.7-3.8-6.6-7.7-6.6c-2.4,0-4.5,1.1-5.9,2.8c-0.3,0.4-0.6,0.8-0.8,1.2
			c-0.3,0.5-0.5,1-0.6,1.5c-0.4-0.1-0.9-0.2-1.4-0.2c-2.7,0-4.9,1.9-5.3,4.5h-0.9c-2.2,0-4,1.8-4,4v0.3c0,2.2,1.8,4,4,4h13.1"/>
		<path class="st2" d="M70.7,94.4c1.5,0,2.8,1.2,2.8,2.8"/>
	</g>
	<g>
		<path class="st0" d="M186.8,81.8h-0.2c-0.8-2.8-3.4-4.9-6.6-4.9c-1.4,0-2.6,0.4-3.7,1.1c-0.7-4.5-4.6-7.9-9.2-7.9
			c-4.2,0-7.8,2.8-8.9,6.6c-0.5-0.1-1.1-0.2-1.7-0.2c-3.2,0-5.9,2.3-6.4,5.4H149c-2.6,0-4.8,2.2-4.8,4.8V87c0,2.6,2.2,4.8,4.8,4.8
			h37.7c2.6,0,4.8-2.2,4.8-4.8v-0.3C191.5,84,189.4,81.8,186.8,81.8L186.8,81.8z"/>
		<path class="st1" d="M182.3,83h-0.2c-0.7-2.5-3-4.3-5.8-4.3c-1.2,0-2.3,0.3-3.2,1c-0.6-4-4-7-8.1-7c-3.7,0-6.8,2.4-7.9,5.8
			c-0.5-0.1-1-0.2-1.5-0.2c-2.8,0-5.2,2.1-5.6,4.8h-0.9c-2.3,0-4.2,1.9-4.2,4.2v0.3c0,2.3,1.9,4.2,4.2,4.2h33.2
			c2.3,0,4.2-1.9,4.2-4.2v-0.3C186.6,84.9,184.7,83,182.3,83L182.3,83z"/>
		<path class="st3" d="M173.2,77.2c-1.4-2.1-3.8-3.6-6.5-3.6c-1.4,0-2.8,0.4-4,1.1"/>
		<path class="st2" d="M168.1,91.8h18.6c2.6,0,4.8-2.2,4.8-4.8v-0.3c0-2.6-2.2-4.8-4.8-4.8h-0.2c-0.8-2.8-3.4-4.9-6.6-4.9
			c-1.4,0-2.6,0.4-3.7,1.1c-0.7-4.5-4.6-7.9-9.2-7.9c-2.9,0-5.4,1.3-7.2,3.3c-0.4,0.4-0.7,0.9-1,1.5c-0.3,0.6-0.6,1.2-0.8,1.8
			c-0.5-0.1-1.1-0.2-1.7-0.2"/>
		<path class="st3" d="M156.6,76.4c1.8,0,3.3,1.5,3.3,3.3"/>
	</g>
	<g>
		<line class="st2" x1="168.4" y1="22.6" x2="174.5" y2="22.6"/>
		<line class="st2" x1="171.5" y1="25.6" x2="171.5" y2="19.5"/>
	</g>
	<g>
		<line class="st2" x1="57.9" y1="22.6" x2="64" y2="22.6"/>
		<line class="st2" x1="61" y1="25.6" x2="61" y2="19.5"/>
	</g>
	<g>
		<line class="st2" x1="256.4" y1="76.2" x2="260.8" y2="71.8"/>
		<line class="st2" x1="260.8" y1="76.2" x2="256.4" y2="71.8"/>
	</g>
	<g>
		<line class="st2" x1="1.1" y1="68" x2="5.4" y2="63.7"/>
		<line class="st2" x1="5.4" y1="68" x2="1.1" y2="63.7"/>
	</g>
	<line class="st2" x1="128.1" y1="22.6" x2="159.3" y2="22.6"/>
	<line class="st2" x1="228.5" y1="24" x2="259.7" y2="24"/>
	<line class="st2" x1="76.9" y1="16.5" x2="135.3" y2="16.5"/>
	<line class="st2" x1="0.8" y1="82.9" x2="37.4" y2="82.9"/>
	<line class="st2" x1="219.6" y1="88.4" x2="246.9" y2="88.4"/>
	<line class="st2" x1="253.9" y1="88.4" x2="250.2" y2="88.4"/>
	<line class="st2" x1="125.2" y1="22.6" x2="119.6" y2="22.6"/>
	<path class="st1" d="M135.3,38.6c0,1.1-0.9,1.9-1.9,1.9s-1.9-0.9-1.9-1.9s0.9-1.9,1.9-1.9S135.3,37.6,135.3,38.6z"/>
	<path class="st0" d="M247.9,63.1c0,1.2-1,2.3-2.3,2.3s-2.3-1-2.3-2.3c0-1.2,1-2.3,2.3-2.3S247.9,61.8,247.9,63.1z"/>
	<path class="st1" d="M58.8,62.4c0,0.8-0.7,1.5-1.5,1.5s-1.5-0.7-1.5-1.5s0.7-1.5,1.5-1.5S58.8,61.5,58.8,62.4z"/>
	<g>
		<g>
			<path class="st0" d="M204.3,47.3h8.9l0-0.5c0.2-3,4.4-8.1,7-11.1c3.2-3.7,5.2-8.5,5.2-13.8c0-11.7-9.5-21.1-21.1-21.1L204.3,47.3
				L204.3,47.3z"/>
			<path class="st1" d="M204.3,47.3h-8.9l0-0.5c-0.2-3-4.4-8.1-7-11.1c-3.2-3.7-5.2-8.5-5.2-13.8c0-11.7,9.5-21.1,21.1-21.1
				L204.3,47.3L204.3,47.3z"/>
			<path class="st1" d="M204.1,47.3h5.1l0-0.5c0.1-3,2.5-8.1,3.9-11.1c1.8-3.7,2.9-8.5,2.9-13.8c0-11.7-5.4-21.1-12-21.1L204.1,47.3
				L204.1,47.3z"/>
			<path class="st0" d="M204.1,47.3H199l0-0.5c-0.1-3-2.6-8.1-4-11.1c-1.8-3.7-2.9-8.5-2.9-13.8c0-11.7,5.4-21.1,12.1-21.1
				L204.1,47.3L204.1,47.3z"/>
			<path class="st3" d="M204.1,47.3h5.1l0-0.5c0.1-3,2.5-8.1,3.9-11.1c1.8-3.7,2.9-8.5,2.9-13.8c0-11.7-5.4-21.1-12-21.1L204.1,47.3
				L204.1,47.3z"/>
			<path class="st3" d="M204.1,47.3H199l0-0.5c-0.1-3-2.6-8.1-4-11.1c-1.8-3.7-2.9-8.5-2.9-13.8c0-11.7,5.4-21.1,12.1-21.1
				L204.1,47.3L204.1,47.3z"/>
			<path class="st3" d="M225.4,21.9c0-12.1-10.2-21.9-22.5-21.1c-10.4,0.7-18.9,9-19.7,19.4c-0.5,6,1.6,11.5,5.1,15.6
				c2.6,3,6.8,8.2,7,11.2l0,0c0,0.2,0.1,0.3,0.3,0.3h17.3c0.2,0,0.3-0.1,0.3-0.3v-0.2c0.2-3,4.4-8.1,7-11.1
				C223.5,32.1,225.4,27.2,225.4,21.9L225.4,21.9z"/>
		</g>
		<g>
			<path class="st1" d="M206.5,75.4h-4c-3.1,0-5.7-2.6-5.7-5.7v-7.2h15.4v7.2C212.2,72.9,209.6,75.4,206.5,75.4z"/>
			<path class="st0" d="M198.8,69.7v-7.2h-2.1v7.2c0,3.1,2.6,5.7,5.7,5.7h2C201.4,75.4,198.8,72.9,198.8,69.7z"/>
			<path class="st0" d="M208.7,62.5v7.2c0,3.1-2.6,5.7-5.7,5.7h3.5c3.1,0,5.7-2.6,5.7-5.7v-7.2H208.7z"/>
			<path class="st3" d="M206.5,75.4h-4c-3.1,0-5.7-2.6-5.7-5.7v-7.2h15.4v7.2C212.2,72.9,209.6,75.4,206.5,75.4z"/>
			<path class="st1" d="M195.8,59.5h17.5c0.5,0,1,0.4,1,1v0.9c0,0.6-0.5,1-1,1h-17.5c-0.6,0-1-0.4-1-1v-0.9
				C194.8,60,195.2,59.5,195.8,59.5L195.8,59.5z"/>
			<path class="st3" d="M195.8,59.5h17.5c0.5,0,1,0.4,1,1v0.9c0,0.6-0.5,1-1,1h-17.5c-0.6,0-1-0.4-1-1v-0.9
				C194.8,60,195.2,59.5,195.8,59.5L195.8,59.5z"/>
		</g>
		<line class="st3" x1="201.4" y1="47.1" x2="201.4" y2="59.9"/>
		<line class="st3" x1="207.3" y1="47.1" x2="207.3" y2="59.9"/>
		<line class="st3" x1="195.3" y1="47.1" x2="199.2" y2="59.6"/>
		<line class="st3" x1="213.1" y1="47.3" x2="209.6" y2="59.6"/>
	</g>
	<path class="st0" d="M169.9,92.8L157,75.3c-0.1,0-0.3,0-0.4,0v0c0,0-0.1,0-0.1,0v1.1l0,0c-3.2,0-5.9,2.3-6.4,5.4H149
		c-2.6,0-4.8,2.2-4.8,4.8V87c0,2.6,2.2,4.8,4.8,4.8h19.1v1.1H169.9L169.9,92.8z"/>
	<g>
		<path class="st0" d="M97.4,87.8l44.2,61.6H51.2l45.6-61.6C96.9,87.6,97.2,87.6,97.4,87.8L97.4,87.8z"/>
		<path class="st2" d="M51.2,149.5l45.6-61.6c0.1-0.2,0.4-0.2,0.6,0l12.4,17.6"/>
		<polygon class="st1" points="78.9,148.3 142.1,148.3 110.5,104.3 		"/>
		<path class="st0" d="M207.1,148.8H82.9L144,63.5L207.1,148.8L207.1,148.8z"/>
		<polygon class="st1" points="158.9,83.6 156.2,80.2 156.4,80 144,63.5 132.6,80 132.2,80 129.3,83.6 133.9,90 136.9,86 
			144.3,96.4 151.7,86.4 154.3,90 		"/>
		<path class="st3" d="M82.9,148.8l61.2-85.2l63,85.2"/>
		<line class="st2" x1="144.1" y1="44.2" x2="144.1" y2="65.6"/>
		<polygon class="st1" points="167.4,62.8 152.6,62.8 152.6,51.2 167.4,51.2 165.1,57 		"/>
		<polygon class="st2" points="167.4,62.8 152.6,62.8 152.6,51.2 167.4,51.2 165.1,57 		"/>
		<rect x="144.1" y="47.4" class="st1" width="14.8" height="11.5"/>
		<rect x="144.1" y="47.4" class="st2" width="14.8" height="11.5"/>
	</g>
	<g>
		<path class="st3" d="M32.5,125.3c-12-2.9-10.3-12-10.3-12H30"/>
		<path class="st3" d="M54.7,125.3c12-2.9,10.3-12,10.3-12h-7.9"/>
		<path class="st0" d="M57.3,115.3c0-2-0.3-3.9-0.9-5.6H30.7c-0.6,1.8-0.9,3.6-0.9,5.6c0,8.2,5.3,16.4,12.2,17.5v10.9h3.2v-10.9
			C52,131.6,57.3,123.4,57.3,115.3L57.3,115.3z"/>
		<path class="st1" d="M42.7,132.7C36.4,131,35,123,35,115.3c0-2,0.3-3.9,0.9-5.6h-3.1c-0.6,1.8-0.9,3.6-0.9,5.6
			c0,8.2,3.3,16.4,10.1,17.5C42,132.7,42.4,132.8,42.7,132.7L42.7,132.7z"/>
		<line class="st3" x1="39.8" y1="109.6" x2="37.3" y2="109.6"/>
		<path class="st3" d="M35,109.6h-4.2c-0.6,1.8-0.9,3.6-0.9,5.6c0,8.2,5.3,16.4,12.2,17.5v10.9h3.2v-10.9
			c6.8-1.1,12.2-9.3,12.2-17.5c0-2-0.3-3.9-0.9-5.6h-15"/>
		<line class="st3" x1="40.4" y1="136.2" x2="46.9" y2="136.2"/>
		<line class="st3" x1="40.4" y1="138.6" x2="46.9" y2="138.6"/>
		<path class="st0" d="M36.6,142.5h13.9c0.6,0,1.1,0.5,1.1,1.1v6h-16v-6C35.5,142.9,36,142.5,36.6,142.5L36.6,142.5z"/>
		<path class="st3" d="M36.6,142.5h13.9c0.6,0,1.1,0.5,1.1,1.1v6h-16v-6C35.5,142.9,36,142.5,36.6,142.5L36.6,142.5z"/>
		<rect x="39.2" y="143.7" class="st1" width="8.6" height="3.4"/>
		<line class="st3" x1="41.4" y1="145.4" x2="45.5" y2="145.4"/>
		<line class="st3" x1="32.5" y1="149.6" x2="54.2" y2="149.6"/>
	</g>
	<g>
		<line class="st2" x1="2.6" y1="149.5" x2="6.5" y2="149.5"/>
		<line class="st2" x1="245.7" y1="149.5" x2="254.3" y2="149.5"/>
		<line class="st3" x1="9.1" y1="149.5" x2="243.4" y2="149.5"/>
	</g>
	<g>
		<path class="st1" d="M117.5,57c0,6.3-5.1,11.4-11.4,11.4S94.7,63.3,94.7,57s5.1-11.4,11.4-11.4S117.5,50.7,117.5,57z"/>
		<path class="st3" d="M117.5,57c0,6.3-5.1,11.4-11.4,11.4S94.7,63.3,94.7,57s5.1-11.4,11.4-11.4S117.5,50.7,117.5,57z"/>
		<line class="st2" x1="106.1" y1="37.2" x2="106.1" y2="42.8"/>
		<line class="st2" x1="114.7" y1="42.3" x2="113.3" y2="44.7"/>
		<line class="st2" x1="123.4" y1="47.3" x2="118.5" y2="50"/>
		<line class="st2" x1="123.1" y1="57.3" x2="120.4" y2="57.2"/>
		<line class="st2" x1="123.1" y1="67.3" x2="118.3" y2="64.4"/>
		<line class="st2" x1="114" y1="72" x2="112.9" y2="69.5"/>
		<line class="st2" x1="105.5" y1="76.8" x2="105.7" y2="71.2"/>
		<line class="st2" x1="97.1" y1="71.4" x2="98.5" y2="69.1"/>
		<line class="st2" x1="88.6" y1="66.2" x2="93.5" y2="63.6"/>
		<line class="st2" x1="89.1" y1="56.3" x2="91.9" y2="56.3"/>
		<line class="st2" x1="89.5" y1="46.2" x2="94.2" y2="49.2"/>
		<line class="st2" x1="98.5" y1="41.9" x2="99.7" y2="44.3"/>
	</g>
	<g>
		<path class="st1" d="M226.1,148.9l1.2-7.2c0.2-1.4-0.9-2.8-2.3-2.8h-24.2c-1.5,0-2.6,1.3-2.3,2.8l1.2,7.2H226.1z"/>
		<path class="st3" d="M199.7,148.9l-1.3-7.4c-0.2-1.3,0.8-2.6,2.2-2.6h24.6c1.4,0,2.4,1.2,2.2,2.6l-1.3,7.4"/>
		<line class="st3" x1="212.9" y1="117.7" x2="212.9" y2="139.7"/>
		<circle class="st1" cx="212.9" cy="108.5" r="11.8"/>
		<path class="st3" d="M222.9,102.2c1.1,1.8,1.8,4,1.8,6.3c0,6.5-5.3,11.8-11.8,11.8s-11.8-5.3-11.8-11.8s5.3-11.8,11.8-11.8
			c1.3,0,2.5,0.2,3.6,0.6"/>
		<path class="st3" d="M218.6,98.2c0.8,0.4,1.6,1,2.2,1.6"/>
		<path class="st0" d="M226.8,121.9c0,0,0.4,5.9-3,9.4c-3.4,3.4-9.4,3-9.4,3s-0.4-5.9,3-9.4C220.8,121.5,226.8,121.9,226.8,121.9z"
			/>
		<path class="st3" d="M226.8,121.9c0,0,0.4,5.9-3,9.4c-3.4,3.4-9.4,3-9.4,3s-0.4-5.9,3-9.4C220.8,121.5,226.8,121.9,226.8,121.9z"
			/>
		<path class="st0" d="M211.7,134.2c0,0,0.4-5.9-3-9.4c-3.4-3.4-9.4-3-9.4-3s-0.4,5.9,3,9.4C205.7,134.7,211.7,134.2,211.7,134.2z"
			/>
		<path class="st3" d="M211.7,134.2c0,0,0.4-5.9-3-9.4c-3.4-3.4-9.4-3-9.4-3s-0.4,5.9,3,9.4C205.7,134.7,211.7,134.2,211.7,134.2z"
			/>
	</g>
</g>
</svg>
