<?xml version="1.0" standalone="no"?>
<!DOCTYPE svg PUBLIC "-//W3C//DTD SVG 20010904//EN"
 "http://www.w3.org/TR/2001/REC-SVG-20010904/DTD/svg10.dtd">
<svg version="1.0" xmlns="http://www.w3.org/2000/svg"
 width="1622.000000pt" height="378.000000pt" viewBox="0 0 1622.000000 378.000000"
 preserveAspectRatio="xMidYMid meet">

<g transform="translate(0.000000,378.000000) scale(0.100000,-0.100000)"
fill="#000000" stroke="none">
<path d="M2487 3568 c26 -29 46 -68 39 -75 -3 -3 -23 3 -46 14 l-40 20 0 -64
0 -64 26 20 c15 12 35 21 45 21 16 0 17 -4 8 -27 -6 -16 -18 -36 -26 -45 -11
-12 -12 -18 -4 -18 7 0 3 -10 -9 -22 -21 -23 -27 -76 -11 -106 13 -27 2 -92
-17 -92 -12 0 -13 3 -4 12 22 22 14 57 -15 64 -28 8 -58 -19 -49 -43 3 -7 0
-13 -8 -13 -20 0 -27 12 -15 26 18 22 7 59 -20 62 -28 4 -53 -22 -44 -45 4
-10 2 -14 -8 -11 -7 2 -13 17 -14 33 0 54 -65 60 -73 6 -5 -29 -22 -27 -22 4
0 15 -8 29 -21 36 -18 9 -25 7 -41 -9 -16 -16 -18 -24 -9 -40 8 -15 7 -21 -4
-25 -9 -4 -15 2 -17 15 -4 29 -33 46 -55 32 -25 -15 -28 -42 -8 -64 23 -26 1
-36 -25 -10 -25 25 -35 25 -54 -2 -17 -24 -6 -58 19 -58 8 0 15 -4 15 -9 0 -6
-15 -7 -34 -4 -27 4 -36 1 -45 -15 -6 -11 -8 -27 -5 -36 7 -18 39 -30 54 -21
5 3 7 0 4 -9 -3 -8 -18 -16 -32 -18 -20 -2 -28 -10 -30 -27 -5 -32 23 -54 49
-40 16 8 19 6 19 -12 0 -12 -3 -19 -6 -16 -4 3 -15 2 -26 -4 -28 -15 -21 -63
10 -67 13 -2 30 2 39 10 15 12 15 11 3 -8 -10 -17 -10 -26 4 -52 10 -20 14
-42 10 -58 -5 -20 -2 -26 13 -30 12 -3 30 -26 43 -55 23 -47 23 -51 7 -84
l-17 -35 50 -24 50 -24 60 18 c203 61 451 66 659 13 112 -29 114 -29 149 -12
19 10 39 20 44 21 6 2 6 19 -2 43 -10 35 -9 46 9 88 12 27 27 47 36 47 15 0
19 11 16 39 -2 7 5 32 14 54 11 28 13 43 6 45 -6 2 -11 8 -11 13 0 5 9 4 20
-3 25 -16 54 -1 58 30 3 21 -30 48 -47 37 -5 -3 -7 4 -4 15 4 16 9 18 19 10
22 -19 56 6 52 38 -3 23 -8 27 -35 27 -24 0 -33 4 -33 16 0 12 6 16 18 12 24
-6 44 19 40 49 -3 26 -40 37 -62 19 -10 -9 -15 -8 -19 3 -4 10 2 16 16 18 31
4 36 52 7 68 -18 10 -26 8 -44 -9 -28 -26 -40 -17 -20 14 12 18 13 28 4 44
-19 36 -70 20 -70 -22 0 -10 -5 -17 -12 -14 -8 2 -12 16 -10 35 3 23 -2 33
-19 43 -20 10 -25 9 -40 -10 -10 -12 -15 -29 -12 -36 3 -10 -1 -15 -12 -15 -9
0 -13 4 -10 10 10 15 -14 50 -34 50 -25 0 -45 -25 -38 -49 3 -11 -1 -22 -8
-25 -9 -3 -15 4 -17 22 -2 21 -9 28 -30 30 -35 4 -53 -26 -33 -55 13 -18 13
-22 -1 -27 -23 -9 -24 -8 -24 12 0 39 -50 57 -69 25 -16 -29 -26 -5 -13 30 17
47 15 71 -8 100 -12 15 -21 29 -21 32 1 2 -7 21 -16 40 -22 46 -10 55 38 28
l39 -21 0 64 c0 61 -1 64 -19 54 -75 -39 -89 -29 -46 34 l24 36 -81 0 -81 0
20 -22z m83 -103 c0 -8 -7 -15 -15 -15 -8 0 -15 7 -15 15 0 8 7 15 15 15 8 0
15 -7 15 -15z m-30 -150 c0 -30 -3 -35 -22 -34 -17 1 -19 2 -5 6 11 3 17 14
17 34 0 16 2 29 5 29 3 0 5 -16 5 -35z m42 0 c2 -19 0 -35 -4 -35 -4 0 -8 16
-8 35 0 19 2 35 4 35 2 0 6 -16 8 -35z m45 -41 c-3 -3 -12 -4 -19 -1 -8 3 -5
6 6 6 11 1 17 -2 13 -5z m-50 -182 c1 -101 -1 -124 -13 -129 -30 -11 -39 16
-40 125 -1 108 6 135 35 130 13 -3 16 -23 18 -126z m-212 32 l100 -34 1 -70
c1 -47 7 -76 16 -88 19 -21 38 -57 38 -71 0 -17 -32 -13 -67 9 l-33 20 0 -75
0 -76 28 20 c41 29 72 36 72 16 0 -25 -28 -72 -52 -89 -29 -21 -65 -20 -108 2
-27 13 -34 22 -32 40 2 12 -2 22 -7 22 -6 0 -11 9 -11 20 0 11 7 20 15 20 8 0
15 -9 15 -19 0 -49 41 -17 56 43 14 55 -46 97 -86 61 -16 -14 -18 -13 -23 23
-7 39 -60 102 -74 88 -5 -4 -8 -37 -8 -72 0 -63 0 -64 -27 -64 -37 0 -62 -38
-49 -72 11 -29 77 -82 86 -68 3 5 1 18 -5 29 -7 13 -7 22 0 26 17 10 32 -6 26
-28 -3 -12 -1 -27 5 -33 16 -20 -6 -51 -46 -64 -39 -13 -84 -3 -117 27 -29 26
-21 35 27 31 25 -2 45 -2 45 -1 0 1 -12 27 -27 57 l-27 55 -32 -37 -33 -37 -1
38 c0 21 5 48 11 59 10 18 9 20 -5 15 -47 -18 -64 181 -20 239 32 44 66 64
120 73 67 11 112 4 229 -35z m626 31 c76 -12 129 -88 128 -185 -1 -70 -20
-126 -43 -122 -13 2 -14 -1 -6 -23 6 -15 10 -40 10 -56 0 -24 -3 -28 -16 -21
-8 5 -24 22 -34 37 l-19 29 -26 -57 c-14 -32 -25 -59 -25 -60 0 -1 20 -1 45 1
48 4 56 -5 27 -31 -33 -30 -78 -40 -117 -27 -40 13 -62 44 -46 64 7 9 7 16 -1
24 -8 8 -8 15 2 27 21 26 31 17 24 -22 l-7 -37 29 18 c43 27 64 55 64 85 0 34
-17 51 -49 51 -25 0 -26 2 -26 60 0 71 -15 92 -44 66 -11 -10 -28 -38 -37 -63
-12 -30 -20 -41 -28 -33 -27 27 -86 -4 -86 -46 0 -30 32 -94 45 -90 6 1 11 12
13 24 2 12 8 22 13 22 16 0 23 -31 9 -40 -7 -4 -10 -15 -7 -25 9 -22 -72 -59
-112 -50 -36 8 -69 42 -81 84 -9 32 -8 33 17 26 15 -3 39 -15 55 -26 l28 -20
0 81 c0 76 -1 80 -17 65 -17 -18 -56 -35 -78 -35 -19 0 -3 45 27 77 16 18 21
36 22 93 l1 71 90 31 c131 45 159 49 256 33z m-326 -17 c6 -4 2 -8 -7 -8 -10
0 -18 7 -18 17 0 9 3 12 8 7 4 -5 12 -12 17 -16z m-95 -318 c0 -21 -24 -28
-35 -10 -8 14 3 30 21 30 8 0 14 -9 14 -20z m16 -171 c19 -11 34 -24 34 -29 0
-4 -14 -17 -32 -28 -33 -21 -42 -20 -83 12 -20 16 -20 16 10 41 17 14 32 25
34 25 2 0 19 -9 37 -21z m-208 -41 c5 -18 8 -34 7 -36 -2 -2 -25 -9 -53 -16
l-50 -14 -10 38 c-9 39 -9 39 27 48 61 17 70 15 79 -20z m426 21 c36 -10 38
-12 32 -42 -8 -40 -8 -40 -53 -33 -54 10 -61 16 -56 54 6 36 15 38 77 21z
m-671 -60 c12 -7 23 -13 25 -14 1 -1 -3 -14 -9 -29 -14 -29 -27 -32 -54 -12
-17 12 -18 18 -7 40 13 30 15 30 45 15z m888 -16 c8 -22 7 -30 -7 -40 -25 -18
-42 -16 -54 6 -15 28 -13 37 13 49 33 16 37 15 48 -15z"/>
<path d="M3906 3366 c-8 -6 -24 -42 -35 -81 l-20 -70 -58 -1 c-79 -1 -150 -33
-159 -71 -3 -15 -13 -38 -21 -51 -8 -13 -12 -30 -9 -37 3 -8 1 -17 -5 -20 -19
-13 -40 -66 -30 -78 5 -7 11 -32 14 -56 5 -47 18 -61 59 -61 18 0 29 -7 33
-21 4 -11 4 -23 1 -26 -16 -17 -126 -53 -160 -53 -31 0 -45 -7 -74 -37 -53
-57 -202 -291 -202 -319 l0 -24 -534 0 c-514 0 -535 1 -579 20 -39 17 -74 21
-229 25 -148 4 -185 8 -194 20 -6 8 -21 48 -33 88 -54 176 -86 227 -168 267
-65 32 -66 34 -58 60 5 15 12 19 26 15 28 -9 46 10 54 55 4 21 13 44 21 50 9
8 11 18 5 29 -10 18 -7 106 4 134 16 40 0 49 -143 76 -92 17 -121 -2 -172
-117 -13 -30 -13 -142 0 -162 7 -10 8 6 4 52 -6 56 -4 72 12 95 10 15 19 36
19 46 1 10 11 30 22 45 18 24 26 27 74 25 30 -1 65 -2 78 -2 31 -1 74 -28 68
-44 -2 -7 -21 -13 -43 -13 -52 -2 -140 -21 -102 -23 15 -1 39 4 55 9 26 9 27
9 9 -5 -11 -8 -28 -15 -38 -15 -10 0 -18 -7 -18 -15 0 -7 -8 -19 -17 -24 -10
-6 -13 -11 -6 -11 6 0 19 10 27 22 9 12 18 19 22 16 8 -9 -15 -48 -29 -48 -8
0 -7 -4 3 -10 11 -7 4 -13 -30 -28 -25 -11 -52 -28 -60 -38 -14 -18 -14 -18 3
-5 16 12 17 12 11 -5 -4 -10 -16 -30 -28 -44 l-21 -25 25 20 25 20 -18 -21
c-9 -11 -27 -20 -40 -19 -17 2 -22 8 -20 29 1 14 -2 24 -8 21 -5 -4 -9 -17 -9
-30 0 -32 32 -50 63 -35 l22 11 -21 -18 c-21 -19 -101 -50 -108 -42 -16 16
-246 506 -242 515 3 7 -2 18 -10 25 -12 9 -20 9 -39 -1 -31 -17 -40 -41 -21
-56 14 -9 8 -23 -40 -95 -72 -108 -131 -225 -149 -294 -17 -67 -9 -95 48 -177
l39 -57 -36 -140 c-20 -77 -36 -159 -36 -182 0 -62 31 -116 121 -212 59 -64
84 -99 98 -138 29 -87 70 -93 90 -15 11 45 10 48 -20 86 -29 36 -31 44 -26 90
3 28 14 75 23 105 16 51 20 55 53 60 20 4 59 14 88 24 l52 18 10 -26 c6 -14
18 -38 27 -52 16 -25 15 -29 -37 -160 l-53 -134 -7 -225 c-4 -124 -13 -250
-19 -280 -9 -39 -11 -119 -7 -272 5 -182 3 -219 -9 -235 -17 -20 -17 -22 1 47
6 24 5 24 -9 6 -9 -11 -16 -23 -16 -28 0 -4 -5 -8 -10 -8 -7 0 -7 6 0 19 16
30 12 49 -6 26 -15 -19 -15 -19 -9 10 6 29 6 29 -10 10 -17 -20 -17 -19 -10 5
7 23 7 24 -10 10 -16 -14 -17 -13 -11 8 6 18 4 21 -10 15 -12 -4 -15 -3 -10 6
5 7 -3 22 -18 38 -15 14 -40 50 -57 79 -44 77 -45 66 -2 -18 20 -40 36 -78 36
-85 0 -7 4 -13 9 -13 5 0 6 -5 3 -10 -3 -6 -1 -10 5 -10 6 0 8 -5 5 -10 -3 -5
1 -10 11 -10 13 0 14 -3 4 -15 -10 -12 -9 -15 6 -15 16 0 17 -2 4 -10 -12 -7
-8 -10 15 -10 l30 -1 -25 -14 -25 -14 30 -1 30 -1 -25 -15 c-25 -15 -25 -15
13 -11 46 4 47 -4 5 -26 l-33 -16 28 0 c16 -1 37 4 47 9 39 21 29 -9 -10 -31
-22 -12 -38 -24 -36 -26 2 -2 22 0 45 6 50 11 53 0 5 -29 -19 -12 -33 -24 -30
-27 8 -8 114 27 118 39 3 8 7 8 11 2 3 -6 -24 -30 -60 -54 -77 -51 -70 -62 17
-27 59 24 61 24 71 6 7 -14 6 -19 -3 -19 -8 0 -20 -8 -29 -18 -8 -9 -28 -27
-43 -40 -45 -35 -24 -36 43 -3 33 17 70 31 81 31 17 0 10 -10 -34 -51 -31 -28
-56 -56 -56 -61 0 -11 92 39 121 65 10 10 19 15 19 11 0 -3 6 -1 14 5 10 9 15
8 20 -4 3 -9 0 -15 -10 -15 -8 0 -13 -4 -10 -9 4 -5 3 -11 -2 -13 -14 -6 -85
-98 -75 -98 11 0 93 58 114 82 9 10 21 18 28 18 6 0 11 5 11 11 0 5 4 8 9 5
10 -7 24 22 16 34 -3 4 4 6 16 3 14 -4 17 -8 9 -13 -7 -4 -9 -13 -6 -19 4 -6
2 -11 -3 -11 -6 0 -11 -6 -11 -14 0 -8 -3 -16 -7 -18 -11 -5 -86 -129 -81
-134 3 -2 28 18 56 45 29 27 52 47 52 45 0 -3 -25 -41 -55 -87 -33 -48 -55
-93 -55 -109 0 -35 51 -85 96 -94 46 -9 80 7 105 51 l21 35 32 -25 c45 -34
116 -65 152 -65 17 0 43 9 58 21 21 16 26 29 26 63 0 23 7 52 16 64 8 12 12
22 7 22 -4 0 0 5 10 11 9 5 17 17 17 24 0 8 5 15 10 15 6 0 10 7 10 15 0 19
14 19 29 1 9 -11 8 -15 -5 -20 -9 -3 -14 -13 -11 -20 3 -8 -1 -17 -9 -20 -8
-3 -13 -9 -12 -13 1 -4 -3 -18 -10 -29 -16 -30 -44 -115 -39 -120 5 -5 88 93
86 102 0 4 6 11 15 16 9 5 14 13 11 19 -4 5 1 9 9 9 9 0 16 9 16 21 0 12 4 17
11 14 6 -4 13 3 16 15 4 16 8 18 14 8 13 -20 11 -28 -7 -28 -10 0 -14 -6 -11
-14 3 -8 -1 -17 -9 -20 -9 -3 -13 -10 -10 -15 4 -5 3 -11 -1 -13 -14 -5 -74
-128 -64 -128 11 0 81 71 81 83 0 5 5 5 10 2 6 -3 10 1 10 9 0 9 5 16 10 16 6
0 10 7 10 15 0 9 6 12 15 9 11 -5 15 1 16 22 0 16 3 23 6 16 6 -16 23 -5 23
16 0 11 8 18 20 18 22 0 27 -12 8 -19 -10 -4 -10 -8 1 -15 11 -8 9 -11 -8 -17
-13 -4 -20 -12 -17 -20 3 -8 2 -15 -2 -17 -12 -5 -73 -140 -67 -147 4 -3 21
12 38 34 18 21 47 54 65 72 17 18 32 38 32 46 0 7 10 13 23 14 19 2 20 0 6
-10 -9 -7 -17 -16 -17 -22 -1 -5 -8 -17 -16 -27 -8 -9 -12 -19 -9 -22 4 -3 1
-6 -5 -6 -7 0 -12 -5 -12 -11 0 -6 -9 -24 -21 -40 -11 -16 -16 -29 -10 -29 19
0 129 104 130 122 1 11 6 15 15 12 9 -3 16 2 18 13 2 13 6 14 11 6 5 -7 -1
-21 -13 -33 -11 -11 -17 -20 -12 -20 4 0 2 -4 -3 -8 -15 -10 -75 -94 -75 -104
0 -12 29 6 75 46 22 20 43 36 48 36 4 0 7 7 7 16 0 8 4 13 9 9 5 -3 12 -1 16
5 3 5 10 10 16 10 8 0 -6 -20 -46 -64 -21 -23 -65 -85 -65 -91 0 -7 108 67
139 97 45 41 28 11 -29 -52 -33 -35 -58 -66 -56 -68 5 -5 140 79 144 89 2 5 8
7 13 3 5 -3 12 2 15 10 3 9 10 13 15 10 14 -8 11 -24 -5 -24 -13 0 -119 -120
-112 -128 2 -2 36 19 75 47 43 31 73 46 77 40 11 -19 24 13 13 33 -7 13 -6 18
4 18 7 0 22 16 34 36 l20 36 11 -32 c7 -18 21 -34 32 -37 16 -4 18 -9 9 -19
-6 -7 -8 -23 -3 -36 6 -21 8 -21 14 -4 6 17 7 17 23 2 9 -10 17 -14 17 -9 0 4
4 3 8 -2 12 -17 95 -75 100 -70 3 2 -16 29 -42 59 -45 53 -60 80 -31 56 8 -7
15 -9 15 -4 0 5 4 4 8 -2 11 -16 122 -77 122 -67 0 5 -25 33 -55 63 -30 30
-55 59 -54 65 0 5 3 4 6 -2 2 -7 9 -13 15 -13 5 0 16 -6 23 -12 46 -41 105
-81 112 -75 5 6 -65 97 -100 128 -15 15 -15 17 -2 23 9 3 15 0 15 -9 0 -8 4
-15 8 -15 5 0 17 -8 28 -18 41 -37 111 -92 119 -92 10 0 -50 92 -87 131 -9 9
-14 20 -11 23 4 3 1 6 -6 6 -7 0 -10 4 -7 9 3 5 45 -29 93 -75 48 -46 89 -82
91 -80 8 9 -89 171 -115 192 -11 10 -10 12 7 17 16 4 20 0 20 -20 0 -13 4 -22
9 -18 5 3 12 -4 16 -15 4 -11 11 -18 16 -15 5 4 9 1 9 -4 0 -6 10 -23 23 -38
65 -77 80 -93 84 -89 7 7 -28 96 -38 96 -5 0 -8 3 -7 8 3 15 -33 82 -45 82 -9
0 -8 3 2 9 10 7 8 12 -10 25 -18 12 -20 16 -7 16 18 0 48 -26 48 -41 0 -6 5
-7 10 -4 6 3 10 2 10 -4 0 -14 148 -166 155 -159 6 6 -38 99 -67 141 -11 15
-16 27 -11 27 4 0 -3 9 -17 20 -14 11 -19 20 -12 20 7 0 11 4 7 9 -3 5 -1 12
5 16 6 4 10 -5 10 -20 0 -20 4 -26 15 -21 10 4 15 -1 15 -14 0 -11 5 -20 10
-20 6 0 10 -5 10 -10 0 -6 10 -22 23 -35 12 -13 36 -42 52 -64 17 -22 35 -39
40 -39 6 1 23 -2 39 -7 40 -11 106 8 170 49 l52 33 16 -27 c38 -67 110 -76
168 -22 53 49 50 66 -34 190 -43 62 -72 114 -66 117 6 3 10 0 11 -7 1 -15 128
-132 136 -125 6 7 -49 107 -60 107 -5 0 -5 5 -2 10 3 6 1 10 -4 10 -6 0 -11 7
-11 15 0 8 -4 15 -10 15 -5 0 -10 7 -10 15 0 8 -8 15 -17 16 -15 0 -15 2 2 9
29 13 35 12 35 -5 0 -15 40 -62 40 -47 0 4 4 2 8 -4 9 -14 117 -94 126 -94 10
0 -8 31 -43 70 -17 19 -35 40 -41 47 -5 7 -10 17 -10 23 0 5 -7 10 -16 10 -8
0 -13 4 -10 9 4 5 1 11 -6 13 -8 3 -6 7 5 11 10 4 17 2 17 -6 0 -16 31 -43 59
-52 11 -3 27 -12 34 -18 23 -22 78 -49 85 -42 4 3 -22 33 -56 66 -49 46 -59
59 -43 59 12 0 21 -5 21 -10 0 -6 3 -9 8 -8 4 1 36 -13 71 -31 34 -18 65 -31
67 -28 4 4 -54 60 -97 92 -20 15 -24 25 -18 40 4 11 8 15 8 8 1 -11 69 -40
131 -57 24 -7 24 -6 -5 19 -16 14 -47 35 -69 46 -29 16 -36 23 -27 32 9 9 14
9 19 -1 9 -13 111 -47 119 -39 2 3 -17 18 -44 33 -58 33 -57 33 -52 39 3 2 27
-2 54 -10 57 -18 68 -13 28 11 -42 27 -60 48 -78 90 -20 49 -26 40 -16 -24 4
-29 4 -52 0 -52 -5 0 -9 10 -10 23 0 12 -7 38 -14 57 l-13 35 -2 -55 c-1 -30
-2 -58 -1 -62 0 -5 -3 -8 -7 -8 -5 0 -14 24 -21 53 -8 28 -18 58 -23 64 -6 7
-8 24 -4 37 7 29 67 66 189 115 100 41 133 72 98 90 -18 10 -23 7 -41 -30 -16
-30 -25 -39 -38 -34 -54 21 -69 18 -92 -20 -21 -34 -26 -37 -59 -31 -35 5 -38
3 -63 -39 -26 -42 -28 -44 -60 -34 -44 12 -40 14 -68 -31 -17 -27 -30 -38 -40
-34 -8 3 -21 8 -27 11 -9 3 -13 -4 -13 -21 0 -14 4 -26 8 -26 5 0 9 -43 8 -95
-1 -52 -5 -95 -10 -95 -5 0 -1 -8 8 -19 15 -17 15 -19 1 -25 -9 -3 -18 -6 -19
-6 -1 0 -1 12 -1 27 1 16 -1 32 -4 38 -3 5 -6 16 -7 25 -1 8 -4 24 -7 35 -3
11 -8 39 -12 63 -4 23 -11 42 -16 42 -5 0 -10 -19 -10 -42 -1 -24 -3 -72 -4
-108 -1 -36 2 -71 8 -78 12 -15 10 -17 -27 -26 -26 -6 -28 -5 -17 8 7 8 9 21
5 27 -4 7 -9 69 -11 138 -2 107 1 142 23 231 13 58 26 136 27 173 2 47 8 70
19 79 19 15 51 88 39 88 -4 0 -14 -18 -21 -40 -8 -24 -18 -39 -26 -36 -14 5
-24 -37 -24 -103 0 -25 -12 -93 -26 -151 -19 -79 -25 -122 -21 -172 5 -74 2
-78 -51 -96 -19 -7 -43 -23 -53 -36 -11 -14 -33 -32 -50 -40 -31 -15 -31 -15
-27 9 3 13 2 22 -2 20 -11 -7 -23 27 -12 34 5 3 32 33 62 65 l53 59 -7 106
c-15 257 -24 345 -35 349 -7 2 -10 37 -9 105 1 97 2 99 8 37 l7 -65 3 90 c4
81 5 75 10 -59 3 -107 9 -151 18 -154 7 -2 12 5 12 20 0 18 -2 20 -10 8 -6
-10 -10 37 -10 142 0 153 1 158 30 220 l30 63 1 -50 c2 -48 2 -48 9 -15 4 20
9 -57 11 -185 l3 -220 6 220 c5 219 11 257 44 284 22 18 20 9 -9 -49 -14 -27
-25 -57 -25 -67 0 -10 14 11 30 46 26 53 30 72 24 108 -7 50 -24 68 -24 26 -1
-15 -8 -39 -16 -53 l-15 -25 5 28 c4 15 9 39 12 55 11 50 112 252 127 252 32
0 74 90 56 122 -9 16 59 171 72 163 4 -3 14 -2 23 1 12 5 16 20 16 58 0 59 14
91 25 57 3 -11 7 -34 7 -51 1 -16 5 -30 11 -30 6 0 7 21 2 58 -4 31 -8 71 -7
87 1 26 -4 21 -33 -35 -25 -48 -33 -74 -30 -100 3 -26 3 -29 -3 -11 -7 21 -14
9 -60 -87 -29 -62 -56 -112 -60 -112 -4 0 -13 4 -21 9 -12 8 8 56 108 263 68
139 131 258 140 265 29 21 25 -20 -9 -86 -30 -61 -31 -62 -15 -113 8 -28 15
-64 15 -79 0 -15 5 -31 11 -35 8 -5 10 5 6 32 -4 22 -9 66 -12 99 -8 79 12 51
26 -37 10 -61 15 -76 23 -67 8 8 -16 135 -30 156 -7 12 -10 24 -5 27 13 9 39
-26 56 -74 8 -25 18 -51 20 -59 3 -8 8 -11 11 -8 9 9 -35 134 -52 147 -8 7
-14 17 -14 23 0 6 16 -5 36 -24 35 -34 103 -155 105 -187 1 -11 4 -8 10 8 9
27 6 -56 -5 -120 -5 -28 -4 -31 4 -12 5 12 12 22 16 22 4 0 4 -109 0 -242 -4
-156 -3 -290 5 -373 12 -141 22 -439 13 -415 -3 8 -8 22 -11 30 -3 9 -10 1
-18 -23 -7 -21 -15 -40 -17 -42 -1 -2 -55 -28 -118 -58 -63 -31 -138 -69 -165
-86 l-51 -30 3 67 4 67 -20 -35 -20 -35 -1 35 c0 19 -4 41 -9 49 -12 19 -35
-64 -25 -88 5 -12 9 -7 14 19 l6 35 7 -40 c13 -76 9 -93 -24 -110 -31 -16 -31
-16 -24 7 11 35 -10 10 -28 -34 -14 -34 -14 -36 4 -41 14 -4 27 6 47 34 25 37
29 39 67 33 38 -5 41 -3 63 36 22 40 25 41 61 35 35 -6 38 -4 59 33 l22 40 44
-13 44 -13 18 40 c13 30 22 38 36 34 10 -3 26 -8 36 -12 15 -4 17 1 14 42 -3
26 0 44 5 41 11 -7 7 191 -6 253 -5 25 -9 56 -9 70 0 14 -4 46 -8 72 -4 29 -2
53 4 60 6 9 5 30 -5 68 -8 34 -11 70 -7 95 6 37 14 208 13 280 -2 167 -8 223
-28 268 -14 28 -20 56 -16 68 5 15 -2 32 -25 61 l-32 40 30 -16 c17 -9 34 -20
37 -26 3 -5 12 -10 18 -10 7 0 -2 14 -20 29 -19 18 -52 34 -87 42 -52 11 -76
29 -41 29 18 0 20 16 4 26 -6 3 -15 1 -19 -6 -9 -15 -20 58 -11 81 3 9 23 30
44 48 47 42 50 21 6 -55 -17 -30 -27 -54 -22 -54 10 0 53 74 63 109 8 25 8 25
9 -5 1 -17 -9 -46 -22 -65 -13 -19 -26 -39 -30 -45 -7 -12 27 -54 43 -54 6 0
10 12 10 28 1 15 7 38 15 52 19 33 19 89 0 110 -14 15 -12 21 15 61 16 24 30
54 30 67 0 12 5 22 10 22 6 0 10 8 10 18 0 9 14 44 30 76 30 59 37 100 21 124
-13 22 -77 -41 -97 -96 -9 -26 -24 -52 -31 -59 -22 -17 -53 -80 -53 -106 0
-26 -26 -67 -42 -67 -6 0 -19 -6 -27 -14 -15 -13 -16 -10 -15 32 0 26 2 52 4
57 1 6 2 13 1 18 0 4 5 6 12 5 7 -2 13 11 15 34 3 31 12 46 53 80 50 44 59 64
37 86 -23 23 -47 12 -98 -45 l-51 -58 26 53 c14 30 23 61 20 72 -7 22 -39 32
-59 16z m48 -21 c4 -12 -19 -35 -37 -35 -7 0 -15 38 -9 44 11 12 40 6 46 -9z
m-3044 -15 c0 -5 -7 -10 -15 -10 -8 0 -15 -4 -15 -10 0 -5 -4 -10 -10 -10 -14
0 -12 27 3 33 21 9 37 7 37 -3z m3244 -61 c-36 -73 -55 -87 -35 -27 15 44 48
98 61 98 6 0 -6 -32 -26 -71z m-96 49 c8 -8 9 -15 1 -25 -18 -21 -39 -15 -39
12 0 27 18 33 38 13z m142 -29 c-13 -44 -52 -108 -57 -92 -4 12 55 138 62 131
3 -2 0 -20 -5 -39z m-3112 -351 c120 -244 179 -375 173 -381 -12 -12 -371 710
-371 744 0 34 37 -34 198 -363z m-186 298 c16 -32 16 -35 -9 -72 -14 -22 -29
-42 -32 -46 -4 -4 -3 28 3 72 5 44 12 80 16 80 3 0 14 -15 22 -34z m2908 -36
c-22 -7 -21 -8 12 -9 20 -1 40 4 43 9 10 15 46 12 67 -7 23 -21 23 -36 -1 -57
-22 -20 -32 -5 -24 37 4 22 2 27 -15 27 -12 0 -24 -5 -28 -11 -4 -7 -24 -9
-51 -6 -39 4 -49 1 -78 -24 -35 -31 -68 -39 -59 -15 3 8 19 20 35 26 16 7 26
16 24 20 -5 9 29 17 75 18 l25 0 -25 -8z m-2985 -72 c-6 -60 -6 -62 10 -43 9
11 6 1 -7 -22 l-22 -41 -23 34 -23 33 31 51 c17 27 33 50 36 50 3 0 2 -28 -2
-62z m2868 42 c-18 -11 -33 -24 -33 -30 0 -5 -4 -10 -10 -10 -17 0 2 30 29 45
40 22 51 18 14 -5z m195 -21 c6 -34 -105 -53 -144 -24 -18 14 -18 14 6 15 14
1 20 4 13 7 -9 3 -9 8 -1 16 16 18 122 6 126 -14z m-2918 -62 c0 -4 -24 -18
-54 -31 -30 -13 -59 -34 -66 -45 -6 -12 -9 -21 -7 -21 17 0 119 55 126 68 7
13 19 -4 57 -80 l47 -96 -35 -53 c-87 -132 -174 -349 -140 -349 4 0 7 14 8 30
1 39 11 48 29 29 13 -12 12 -18 -9 -43 -12 -16 -28 -26 -34 -22 -6 3 -34 48
-62 98 -43 75 -51 96 -45 122 12 58 17 212 6 196 -14 -20 -14 -7 1 25 14 31
21 31 38 0 7 -14 17 -25 22 -25 19 0 19 31 -1 59 -12 16 -21 33 -21 38 0 5 23
46 51 92 l52 84 18 -34 c10 -19 18 -37 19 -42z m580 47 c0 -8 -4 -14 -10 -14
-5 0 -10 9 -10 21 0 11 5 17 10 14 6 -3 10 -13 10 -21z m2530 -14 c-8 -5 -18
-6 -24 -3 -5 4 -1 10 10 13 24 9 34 2 14 -10z m40 -23 c0 -5 -4 -5 -10 -2 -5
3 -10 14 -10 23 0 15 2 15 10 2 5 -8 10 -19 10 -23z m-2590 -29 c0 -30 -3 -39
-14 -35 -8 3 -22 -1 -33 -9 -17 -14 -16 -15 10 -11 20 3 31 -1 37 -14 14 -25
13 -29 -12 -30 -13 0 -17 -3 -10 -6 17 -7 15 -23 -3 -23 -16 0 -20 -16 -6 -24
5 -3 7 -15 4 -26 -6 -24 -32 -26 -76 -4 l-32 15 24 -19 24 -19 -23 -47 c-18
-36 -21 -49 -12 -58 9 -9 12 -6 12 16 0 15 4 25 10 21 11 -7 12 -139 2 -200
l-7 -40 -27 56 c-15 30 -52 83 -83 116 -30 34 -55 67 -55 74 0 7 8 22 19 33
21 24 41 78 41 113 0 20 4 22 25 17 19 -5 25 -2 25 10 0 9 7 19 16 23 8 3 13
12 10 19 -3 8 0 13 6 11 6 -1 15 12 21 28 11 33 28 47 67 56 35 8 40 3 40 -43z
m2168 46 c12 -4 22 -13 22 -21 0 -10 -6 -13 -16 -9 -9 3 -20 6 -25 6 -6 0 -7
5 -3 11 4 7 -1 7 -16 -1 -12 -7 -19 -17 -16 -26 4 -9 -1 -14 -15 -14 -20 0
-20 0 1 30 22 31 30 34 68 24z m134 -10 c57 6 65 2 58 -29 -1 -5 -2 -20 -2
-33 -1 -26 -8 -23 -12 5 -2 10 2 24 8 32 9 12 8 12 -11 0 -12 -7 -18 -16 -12
-19 5 -4 1 -14 -10 -24 -11 -10 -24 -15 -30 -12 -5 4 -11 -6 -13 -21 -2 -18
-12 -32 -29 -40 -25 -12 -26 -15 -17 -65 10 -63 3 -117 -18 -125 -21 -8 -17
-33 5 -33 34 0 51 38 51 112 0 37 -5 70 -10 73 -8 5 -7 11 1 21 8 10 16 11 22
5 14 -14 70 16 61 32 -5 8 -3 8 7 -1 11 -11 9 -17 -16 -38 -29 -24 -29 -25 -2
-8 29 18 36 10 12 -16 -8 -9 -19 -46 -24 -83 -5 -36 -12 -71 -16 -77 -3 -5 -2
-10 4 -10 5 0 12 13 16 29 5 22 10 28 26 24 10 -3 19 -7 19 -9 0 -1 -12 -30
-26 -63 -19 -43 -37 -67 -60 -82 -19 -11 -34 -25 -34 -30 0 -5 -5 -9 -11 -9
-5 0 -29 -9 -52 -19 -24 -11 -56 -23 -72 -27 -17 -4 -41 -12 -55 -19 -14 -7
-38 -15 -54 -19 l-29 -7 17 25 c9 14 12 26 7 26 -10 0 -71 -92 -71 -108 0 -6
-14 -21 -31 -33 -26 -18 -33 -19 -41 -8 -8 12 -9 11 -6 -1 3 -8 18 -21 34 -29
16 -8 47 -29 68 -48 53 -44 109 -60 141 -39 21 14 28 14 59 1 19 -8 42 -12 50
-9 19 7 21 -7 4 -24 -9 -9 -9 -12 2 -12 9 0 8 -6 -6 -22 -13 -14 -14 -19 -4
-14 9 5 8 2 -2 -7 -10 -8 -15 -17 -11 -20 16 -16 -80 -4 -196 24 -193 48 -284
106 -267 173 9 33 149 247 193 294 35 36 47 42 81 42 22 0 64 11 94 25 l53 25
9 -30 c5 -17 13 -30 18 -30 5 0 7 4 4 8 -3 5 -9 34 -14 65 -9 55 -8 57 17 65
18 7 6 8 -40 4 -69 -5 -92 6 -69 32 6 8 7 16 3 18 -4 3 -1 3 7 1 31 -9 35 -7
36 15 1 17 1 18 -3 3 -4 -20 -4 -20 -24 0 -22 22 -24 30 -7 27 6 -2 14 5 16
15 2 11 -3 17 -15 17 -15 0 -16 -2 -3 -10 12 -8 11 -10 -7 -10 -29 0 -29 18 0
51 17 20 27 24 47 18 24 -7 24 -7 3 -8 -13 -1 -23 -7 -23 -16 0 -18 -1 -18 39
-4 31 11 31 12 15 30 -9 11 -13 19 -8 19 5 0 0 8 -11 16 -19 16 -19 16 5 9 58
-17 70 -26 89 -67 13 -28 20 -36 21 -23 0 17 2 17 10 5 8 -13 10 -12 10 3 0
15 -11 22 -32 18 -5 0 -8 4 -8 10 0 6 9 8 20 4 11 -3 29 0 39 7 18 13 16 14
-26 14 -25 -1 -48 4 -50 10 -2 6 10 9 29 8 22 -1 25 0 8 3 -28 5 -50 21 -50
35 0 5 10 3 22 -3 13 -7 43 -9 80 -5z m260 -22 c-7 -2 -10 -8 -7 -13 4 -5 -1
-6 -9 -3 -12 5 -13 9 -3 19 7 7 16 10 22 7 5 -3 4 -7 -3 -10z m-18 -31 c4 -5
-3 -7 -14 -4 -23 6 -26 13 -6 13 8 0 17 -4 20 -9z m-3294 -66 c0 -6 -15 -46
-33 -90 -19 -44 -37 -89 -41 -100 -7 -20 -8 -20 -22 -1 -15 21 -20 86 -6 86
14 0 92 76 92 89 0 7 -20 -2 -45 -19 -25 -17 -45 -29 -45 -27 0 9 43 103 53
115 8 10 14 7 28 -15 11 -15 19 -33 19 -38z m3110 24 c0 11 3 11 17 0 15 -13
15 -12 4 9 -7 14 -8 22 -1 22 5 0 10 -4 10 -9 0 -5 2 -15 5 -23 2 -7 -5 -24
-16 -38 -11 -14 -18 -19 -14 -12 4 7 1 19 -5 27 -10 12 -16 11 -41 -7 -16 -12
-32 -18 -36 -13 -5 4 -2 10 5 12 6 3 10 9 6 14 -3 5 5 18 18 28 23 19 23 19
35 -2 7 -12 12 -16 13 -8z m175 21 c3 -6 -1 -7 -9 -4 -18 7 -21 14 -7 14 6 0
13 -4 16 -10z m-25 -19 c0 -12 -26 -38 -49 -51 -10 -5 -25 -24 -34 -42 l-17
-33 0 38 c0 39 14 76 34 89 16 11 66 10 66 -1z m-129 -96 c-26 -59 -26 -69 -1
-55 24 13 28 -6 6 -35 -21 -28 -46 -12 -46 30 0 30 47 120 58 110 2 -2 -6 -25
-17 -50z m173 -35 c-11 -33 -22 -60 -25 -60 -19 0 -15 34 6 66 14 20 25 44 25
52 0 8 3 13 6 9 4 -3 -2 -33 -12 -67z m-294 -27 c0 -48 -5 -72 -17 -85 -26
-29 -36 -21 -12 11 19 26 21 38 15 85 -4 35 -2 56 4 56 6 0 10 -29 10 -67z
m-3020 -83 l-5 -95 -21 30 -22 30 25 68 c14 37 26 66 27 65 1 -2 -1 -46 -4
-98z m334 50 l16 -41 -50 -64 c-27 -35 -50 -70 -50 -76 0 -14 -52 -99 -61 -99
-3 0 -13 8 -22 18 -14 16 -13 24 23 100 46 97 108 202 120 202 4 0 15 -18 24
-40z m141 -10 c-4 -6 21 -43 55 -83 34 -40 74 -96 87 -126 22 -46 25 -63 21
-135 -5 -103 -15 -121 -39 -75 -16 31 -16 36 -2 51 11 12 13 27 9 53 -9 47
-34 75 -66 75 -22 0 -32 13 -78 105 -28 58 -52 109 -52 114 0 5 12 14 28 19
36 14 44 14 37 2z m278 -51 c29 -15 52 -44 83 -102 l25 -49 -27 -41 c-24 -37
-28 -39 -35 -22 -6 16 -8 14 -8 -12 -1 -22 -10 -41 -28 -58 -16 -14 -21 -23
-12 -20 14 5 13 -5 -8 -72 -13 -43 -26 -83 -28 -89 -2 -6 -16 -9 -32 -7 l-28
5 2 96 c2 53 8 135 14 182 7 47 12 115 12 152 0 73 0 73 70 37z m-337 -110
c53 -107 55 -112 37 -131 -17 -19 -18 -19 -31 -1 -13 17 -14 17 -8 -4 5 -16 2
-25 -13 -32 -28 -15 -27 -17 -40 44 -7 30 -27 77 -45 103 -17 26 -28 52 -24
58 4 5 20 24 34 42 14 17 28 32 30 32 2 0 29 -50 60 -111z m2906 47 c16 -30
27 -76 19 -76 -5 0 -11 13 -14 29 -3 15 -17 42 -31 59 -15 16 -26 33 -26 37 0
12 40 -26 52 -49z m-3282 -116 c44 -75 46 -110 8 -110 -17 0 -18 -3 -8 -15 7
-8 9 -22 6 -31 -5 -12 -2 -15 10 -10 8 3 25 1 36 -5 17 -9 19 -8 14 8 -4 14 2
24 25 37 l31 18 -16 -30 c-9 -17 -16 -45 -16 -62 0 -32 -32 -76 -47 -67 -5 3
-9 -9 -9 -28 1 -29 4 -34 19 -29 10 3 26 -1 36 -10 17 -16 18 -15 14 8 -4 19
0 26 19 32 l23 8 -25 6 c-14 3 -26 15 -28 25 -3 16 -1 18 9 8 7 -7 24 -13 37
-13 18 0 23 -4 18 -15 -28 -73 -41 -151 -46 -275 l-2 -45 -11 34 c-6 19 -48
74 -95 125 -120 128 -133 164 -107 291 14 72 55 215 60 215 2 0 23 -32 45 -70z
m282 10 c28 -53 28 -54 10 -84 -11 -18 -32 -36 -52 -43 -35 -12 -34 -12 24
-12 70 -1 136 26 168 70 18 24 28 29 62 28 39 -1 40 -2 11 -9 -29 -7 -29 -8
10 -10 32 -2 34 -4 13 -7 -16 -2 -28 -9 -28 -14 0 -5 12 -10 28 -10 l27 -2
-27 -4 c-37 -6 -36 -23 2 -23 24 0 28 -3 23 -17 -4 -11 -8 -12 -11 -5 -5 15
-38 16 -47 2 -3 -5 -18 -10 -32 -10 -13 0 -38 -9 -53 -20 -78 -55 -216 -96
-283 -83 -22 4 -27 11 -27 34 0 42 126 282 145 276 6 -2 22 -27 37 -57z m2728
33 c-1 -18 -18 -35 -24 -24 -4 6 -4 16 -1 21 7 12 25 13 25 3z m-40 -63 c0
-16 -4 -31 -9 -34 -11 -7 -25 49 -16 64 11 17 25 0 25 -30z m-31 -65 c0 -11
-6 -31 -13 -44 -12 -22 -13 -18 -19 45 -6 86 3 114 19 59 7 -22 13 -49 13 -60z
m-2089 13 c34 -116 23 -110 212 -114 205 -6 216 -8 258 -44 l35 -31 -52 27
c-62 31 -91 23 -47 -14 16 -13 22 -20 14 -16 -20 11 -108 25 -202 31 -72 4
-78 3 -78 -15 0 -23 -25 -32 -92 -32 -53 0 -62 9 -117 117 l-31 63 32 50 c18
27 36 50 40 50 3 0 16 -33 28 -72z m2041 -34 c7 -98 -9 -144 -52 -144 -15 0
-30 6 -32 13 -4 7 -8 3 -12 -10 -8 -25 -34 -30 -66 -13 -15 9 -17 15 -9 30 5
10 11 52 11 92 1 55 3 65 9 43 4 -16 8 -52 9 -80 1 -36 4 -46 11 -35 5 8 7 46
3 85 -4 51 -3 67 5 60 6 -6 14 -43 18 -83 5 -51 10 -70 18 -62 7 7 6 31 -2 82
-8 42 -9 75 -4 80 9 9 14 -9 28 -104 3 -27 11 -48 16 -48 6 0 8 13 4 32 -14
72 -18 138 -9 138 13 0 23 -48 23 -112 0 -34 3 -47 11 -42 12 7 6 115 -8 150
-4 12 -2 15 8 12 10 -3 16 -29 20 -84z m-2571 5 c0 -5 -7 -9 -15 -9 -9 0 -12
6 -9 15 6 15 24 11 24 -6z m2351 -45 c-10 -32 -19 -50 -20 -39 -1 21 29 108
36 102 2 -2 -5 -30 -16 -63z m35 -81 c-8 -21 -26 -6 -26 22 0 14 6 46 13 72
l12 47 3 -63 c2 -35 1 -70 -2 -78z m-2641 117 c3 -5 1 -10 -4 -10 -6 0 -11 5
-11 10 0 6 2 10 4 10 3 0 8 -4 11 -10z m768 -168 c8 -10 31 -13 84 -10 l73 3
-1 -390 -1 -390 -102 210 c-97 199 -103 215 -114 304 -8 71 -20 113 -48 172
-40 86 -41 104 -2 207 l20 54 40 -73 c22 -41 45 -80 51 -87z m-72 -353 c130
-267 239 -502 243 -524 4 -22 6 -38 3 -35 -9 10 -507 1034 -507 1043 0 40 55
-63 261 -484z m-247 420 c31 -72 31 -69 8 -69 -9 0 -26 12 -36 28 -16 25 -16
17 0 -23 11 -26 -23 -17 -46 13 l-22 27 15 -26 c15 -25 15 -27 -3 -32 -14 -4
-26 3 -39 21 -34 49 -34 65 2 87 32 20 63 32 83 34 6 1 23 -26 38 -60z m2116
35 c0 -8 -5 -12 -10 -9 -6 4 -8 11 -5 16 9 14 15 11 15 -7z m-2025 -54 c-9
-41 -17 -33 -9 9 4 17 9 30 11 27 3 -2 2 -19 -2 -36z m1375 -783 l0 -774 -52
-17 c-101 -33 -195 -41 -278 -24 -41 9 -92 23 -113 31 l-37 16 0 770 0 771
240 0 240 0 0 -773z m-674 663 l38 0 -28 -29 c-20 -20 -26 -35 -22 -50 3 -12
9 -31 12 -43 6 -20 5 -20 -27 5 l-33 26 -35 -21 -34 -22 6 26 c4 15 9 33 13
41 3 8 -8 25 -26 41 l-32 26 40 0 c35 0 41 4 52 31 l13 31 13 -31 c11 -27 18
-31 50 -31z m988 41 c11 -13 15 -27 11 -40 -9 -30 -21 -26 -20 7 0 22 -4 27
-25 27 -21 0 -25 -4 -23 -27 1 -16 -2 -28 -8 -28 -17 0 -10 59 9 69 25 15 37
13 56 -8z m-1629 -213 l109 -223 1 -195 c1 -170 5 -211 28 -319 15 -68 27
-144 27 -168 0 -24 5 -76 11 -114 6 -39 8 -73 6 -76 -22 -21 -176 121 -226
207 -17 30 -31 50 -31 44 0 -25 81 -133 141 -188 60 -55 77 -66 124 -81 16 -5
17 -8 5 -15 -13 -9 -13 -10 0 -11 23 -2 -68 -20 -130 -26 l-56 -5 -12 62 c-7
34 -15 60 -18 58 -2 -3 1 -28 8 -56 6 -29 10 -54 7 -56 -2 -2 -18 -1 -35 1
-31 5 -31 6 -38 71 -3 37 -10 81 -16 97 -9 27 -9 26 -4 -10 15 -101 19 -195 9
-195 -28 0 -35 28 -37 140 l-2 115 -3 -107 -4 -108 -47 0 c-27 0 -54 -6 -61
-12 -11 -11 -12 -5 -8 32 3 25 8 56 12 70 3 14 -1 9 -9 -10 -8 -19 -15 -45
-15 -57 -1 -17 -10 -25 -41 -33 -61 -17 -82 -1 -78 58 2 26 0 133 -5 237 -4
121 -3 219 3 270 6 44 15 181 19 305 l8 225 53 135 c29 74 57 141 63 148 6 7
34 12 72 12 l62 0 108 -222z m-4 210 c32 5 99 -165 98 -248 -1 -30 -10 -16
-69 105 -72 147 -78 161 -57 148 6 -4 19 -6 28 -5z m1895 -14 c33 -15 61 -28
63 -30 6 -5 -30 -88 -46 -107 -9 -9 -14 -19 -11 -22 9 -10 55 59 63 93 6 30
10 33 38 30 31 -3 32 -5 30 -43 -2 -22 0 -34 3 -27 3 6 10 10 15 6 5 -3 9 8 9
24 0 30 0 30 35 19 40 -12 41 -19 16 -66 -16 -31 -19 -32 -28 -16 -9 15 -12
11 -18 -26 -4 -24 -16 -55 -25 -69 -10 -14 -21 -42 -25 -63 -4 -20 -11 -37
-16 -37 -11 0 -12 47 -1 52 10 4 44 79 38 85 -2 3 -12 -8 -21 -24 -15 -27 -16
-27 -11 -3 2 14 7 36 11 50 6 25 6 25 -9 -2 -10 -16 -19 -64 -22 -120 -6 -96
-14 -130 -14 -64 0 33 -2 36 -15 22 -10 -9 -15 -35 -15 -73 0 -49 -8 -74 -50
-160 -27 -57 -51 -103 -54 -103 -3 0 -6 158 -6 350 0 193 2 350 4 350 2 0 30
-12 62 -26z m-282 -56 c3 -13 10 -56 16 -97 11 -76 7 -90 -27 -91 -41 0 -42 9
-13 208 0 1 4 2 10 2 5 0 12 -10 14 -22z m-49 -75 c-12 -110 -16 -171 -18
-295 -2 -137 -17 -173 -17 -42 0 62 -4 96 -14 110 -10 13 -11 23 -4 31 5 7 7
17 3 23 -9 15 -45 12 -51 -4 -3 -8 -15 -12 -27 -10 -21 4 -21 4 -2 -5 11 -4
23 -7 26 -5 3 1 4 -16 3 -39 -3 -58 -29 -63 -38 -7 -5 34 -10 40 -31 40 -30 0
-33 20 -5 27 11 3 21 10 21 17 1 6 2 22 3 36 3 50 30 111 62 144 29 30 45 38
88 45 4 0 5 -29 1 -66z m140 24 c40 -42 67 -115 71 -188 3 -57 1 -69 -12 -69
-13 0 -15 11 -12 64 1 35 -1 62 -5 59 -5 -3 -8 -40 -7 -82 2 -42 2 -109 1
-150 -1 -65 -3 -72 -16 -61 -11 9 -13 16 -5 24 23 23 -1 114 -45 170 -8 11
-15 31 -15 45 0 21 -2 23 -10 11 -5 -8 -10 -10 -10 -5 0 6 4 16 9 24 5 7 5 29
1 50 -5 20 -11 62 -15 94 l-6 57 28 -11 c15 -5 37 -20 48 -32z m492 21 c-18
-43 -366 -778 -376 -794 -11 -17 -12 -16 -7 8 4 15 9 56 12 90 6 55 27 105
165 386 148 304 159 322 184 322 18 0 25 -4 22 -12z m-1671 -108 l38 0 -28
-29 c-26 -27 -27 -33 -17 -62 17 -49 14 -53 -21 -25 l-32 25 -29 -21 c-35 -25
-39 -21 -27 23 9 30 8 36 -15 56 -33 29 -32 33 11 33 30 0 36 4 46 31 l11 31
13 -31 c11 -27 18 -31 50 -31z m190 25 c5 -22 12 -25 47 -25 l41 0 -28 -29
c-29 -30 -30 -43 -9 -97 6 -16 3 -15 -24 4 -37 26 -51 27 -75 5 -25 -22 -33
-11 -19 28 10 30 9 34 -21 60 l-33 28 42 1 c37 0 43 3 49 25 3 14 10 25 15 25
5 0 11 -11 15 -25z m-1203 -80 c-14 -48 -23 -65 -37 -65 -19 0 -22 15 -18 88
l4 64 28 -34 c20 -22 27 -40 23 -53z m1997 -65 c0 -5 -9 -10 -20 -10 -11 0
-20 5 -20 10 0 6 9 10 20 10 11 0 20 -4 20 -10z m183 -121 c-1 -30 -7 -66 -13
-80 -8 -19 -9 -12 -4 31 4 38 1 69 -11 100 -29 78 -28 86 1 45 24 -34 28 -49
27 -96z m-212 74 c-12 -20 -14 -14 -5 12 4 9 9 14 11 11 3 -2 0 -13 -6 -23z
m-828 -53 l41 0 -31 -32 c-30 -32 -30 -34 -17 -72 8 -22 12 -41 10 -44 -3 -2
-18 5 -34 17 -37 26 -47 26 -79 1 -15 -11 -28 -18 -30 -16 -2 2 1 22 7 45 10
39 9 42 -22 71 l-33 29 43 1 c40 0 44 3 59 38 l16 37 15 -37 c14 -35 18 -38
55 -38z m850 -34 c-3 -48 -9 -82 -13 -76 -7 12 -3 132 6 159 10 32 13 0 7 -83z
m454 32 c-2 -13 -4 -3 -4 22 0 25 2 35 4 23 2 -13 2 -33 0 -45z m-1704 -290
c64 -134 130 -278 147 -321 40 -105 108 -208 189 -287 l66 -65 -17 -54 c-10
-30 -19 -56 -21 -58 -7 -6 -57 16 -56 24 6 34 -3 173 -11 173 -9 0 -24 -45
-34 -103 -9 -50 -17 -67 -34 -67 -31 0 -42 16 -48 66 -3 27 -7 58 -9 69 -2 11
-4 30 -4 43 -2 44 -19 12 -27 -50 -5 -35 -9 -67 -10 -73 -1 -5 -2 -18 -3 -27
-1 -23 -60 -26 -62 -3 -1 8 -2 18 -4 23 -1 4 -5 31 -10 60 -12 82 -31 76 -37
-11 -6 -102 -64 50 -78 208 -6 61 -22 167 -35 238 -20 104 -25 157 -25 292 0
91 1 165 3 165 2 0 56 -109 120 -242z m455 55 c-64 -2 -172 -2 -240 0 -68 1
-15 3 117 3 132 0 187 -2 123 -3z m1090 -10 c-16 -2 -40 -2 -55 0 -16 2 -3 4
27 4 30 0 43 -2 28 -4z m151 -208 c10 -21 41 -314 41 -378 0 -31 -8 -47 -44
-85 l-45 -47 -7 43 c-3 23 -10 42 -14 42 -6 0 -18 -55 -22 -97 0 -5 -4 -18 -8
-29 -5 -13 -4 -26 3 -34 10 -10 7 -11 -13 -6 -14 3 -32 6 -40 6 -10 0 -15 11
-16 38 -2 60 -25 155 -35 145 -5 -5 -10 -41 -11 -81 -2 -39 -7 -72 -12 -72 -4
0 -6 -6 -3 -14 4 -10 -4 -15 -24 -18 -30 -5 -42 4 -44 32 -5 45 -28 130 -36
130 -5 0 -10 -17 -10 -37 -1 -35 -5 -102 -8 -129 -1 -16 -30 -26 -52 -19 -11
4 -16 12 -12 21 3 7 -1 14 -8 14 -7 0 -10 3 -6 6 3 3 1 17 -4 31 -8 22 -3 31
54 86 106 103 140 163 330 582 l32 70 3 -90 c1 -49 6 -99 11 -110z m-202 123
c30 -29 43 -58 26 -58 -10 0 -83 72 -83 82 0 17 26 6 57 -24z m-1123 7 c9 24
25 8 20 -20 -2 -14 0 -25 6 -25 5 0 9 3 9 8 -4 24 3 43 14 39 17 -6 11 -53
-13 -99 -24 -46 -25 -55 -5 -34 22 21 41 11 39 -22 -3 -62 -1 -60 -54 -59 -27
0 -50 3 -50 7 0 4 6 23 14 41 16 40 28 127 18 133 -4 2 -8 -17 -9 -42 -3 -61
-11 -82 -23 -62 -5 9 -8 2 -7 -21 2 -30 -1 -34 -23 -34 -21 0 -25 4 -23 30 0
17 -1 24 -4 18 -8 -22 -35 -15 -28 7 3 11 2 20 -2 20 -16 0 -54 41 -48 51 8
11 30 -1 66 -35 37 -34 42 -23 13 27 -29 51 -30 60 -4 52 13 -4 20 -2 18 5 -2
7 2 14 8 17 16 5 25 -35 10 -45 -9 -5 -9 -15 1 -42 7 -23 12 -28 13 -15 0 17
2 18 11 5 9 -12 10 -12 5 3 -3 10 -6 23 -6 28 0 6 -4 7 -10 4 -5 -3 -10 -1
-10 4 0 6 5 11 10 11 6 0 8 11 6 24 -6 31 5 42 20 21 11 -14 12 -14 18 0z
m849 -13 l27 -28 -54 -53 c-39 -38 -59 -52 -71 -47 -13 4 -15 12 -10 29 4 12
8 32 9 45 2 20 51 82 66 82 3 0 18 -13 33 -28z m246 -26 c46 -47 52 -57 41
-70 -19 -24 -30 -20 -87 36 -49 49 -52 53 -36 70 9 10 19 18 22 18 4 0 31 -25
60 -54z m-1003 8 c-3 -8 -1 -14 4 -14 6 0 10 5 10 12 0 6 11 1 25 -12 32 -30
31 -32 -5 -53 -17 -10 -30 -13 -30 -8 0 6 -5 11 -11 11 -5 0 -7 -4 -4 -10 3
-5 -1 -10 -9 -10 -11 0 -15 8 -14 24 1 14 5 24 8 24 17 -1 23 3 13 10 -7 4
-10 17 -6 30 3 12 10 19 15 16 5 -3 7 -12 4 -20z m-206 -19 c7 -9 10 -18 7
-22 -8 -7 -37 15 -37 28 0 14 16 11 30 -6z m1193 -88 c-7 -12 -83 63 -83 82 0
9 18 -2 45 -29 24 -24 42 -47 38 -53z m-1215 16 c17 -16 1 -17 -32 -2 -15 7
-22 17 -19 25 6 15 15 10 51 -23z m307 17 c3 -5 2 -10 -4 -10 -5 0 -16 -7 -24
-15 -20 -19 -71 -32 -66 -16 3 7 7 11 9 9 3 -2 16 7 30 20 26 24 45 28 55 12z
m804 -104 c104 -104 124 -136 88 -136 -7 0 -63 51 -125 113 -88 88 -110 115
-100 125 7 7 15 12 18 12 3 0 56 -51 119 -114z m50 91 c8 -10 4 -20 -19 -42
-25 -24 -32 -26 -45 -15 -14 12 -13 16 11 42 31 32 37 33 53 15z m-1082 -93
c-3 -3 -12 -4 -19 -1 -8 3 -5 6 6 6 11 1 17 -2 13 -5z m970 -20 c4 -12 -13
-36 -59 -80 -68 -67 -85 -75 -95 -48 -4 11 15 36 58 80 65 66 85 76 96 48z
m-872 1 c-24 -8 -116 -12 -103 -4 7 5 36 8 63 8 28 0 46 -2 40 -4z m1636 -51
l-9 -39 -1 36 c-1 20 2 39 6 42 12 13 13 0 4 -39z m-1667 21 c3 -8 12 -12 21
-9 16 7 22 -21 6 -30 -5 -3 -7 -16 -4 -27 6 -20 7 -19 18 7 l12 29 22 -43 c12
-24 20 -49 18 -55 -2 -7 -13 6 -25 28 -12 22 -21 36 -22 32 0 -4 7 -21 15 -37
13 -25 13 -29 -2 -34 -9 -4 -17 -5 -18 -4 -1 2 -8 12 -14 23 -12 19 -12 19 -8
-2 4 -18 0 -21 -24 -21 -16 1 -29 6 -29 12 0 8 -2 8 -8 0 -4 -6 -15 -11 -25
-11 -14 0 -17 6 -13 26 5 25 5 25 -6 4 -12 -25 -17 -27 -36 -14 -11 7 -9 19
12 60 24 47 29 51 61 51 28 0 35 -4 35 -20 0 -11 5 -20 10 -20 15 0 12 22 -6
48 -8 12 -11 22 -6 22 6 0 12 -7 16 -15z m49 8 c-7 -2 -19 -2 -25 0 -7 3 -2 5
12 5 14 0 19 -2 13 -5z m-110 -10 c-7 -2 -19 -2 -25 0 -7 3 -2 5 12 5 14 0 19
-2 13 -5z m1817 -242 c-6 -23 -7 -52 -3 -68 7 -25 9 -23 14 22 6 44 6 42 4
-14 -2 -36 1 -76 6 -89 11 -29 1 -81 -12 -60 -7 10 -9 8 -10 -7 -1 -17 -2 -16
-9 5 -8 25 -8 25 -10 -5 l-2 -30 -8 30 c-4 17 -8 24 -9 18 0 -7 -7 -13 -15
-13 -9 0 -15 21 -18 73 -10 125 -6 139 38 164 21 12 40 20 42 18 2 -1 -2 -21
-8 -44z m-95 -11 c-10 -17 -13 -205 -3 -217 6 -8 2 -15 -14 -24 -21 -11 -22
-11 -9 5 9 10 11 20 5 24 -5 4 -10 16 -11 27 -4 28 -13 84 -22 125 -7 32 -5
36 23 51 39 21 38 21 31 9z m-2070 -130 c8 -16 25 -34 36 -40 11 -7 18 -17 16
-25 -3 -7 0 -18 6 -25 10 -10 8 -10 -10 -1 -19 10 -20 8 -15 -11 l5 -22 -31
23 c-18 12 -32 26 -32 31 0 5 -18 19 -40 30 -43 22 -51 43 -22 59 35 21 71 13
87 -19z m-363 14 c9 -8 -37 -86 -66 -114 l-25 -23 9 34 c9 34 9 34 -8 11 -16
-21 -18 -21 -28 -4 -9 14 -7 26 13 60 22 37 29 42 62 42 21 0 40 -3 43 -6z
m123 -47 c0 -26 -4 -47 -9 -47 -4 0 -6 -7 -2 -15 3 -8 1 -15 -4 -15 -5 0 -7
-7 -4 -15 7 -17 3 -18 -21 -9 -14 6 -14 8 0 24 11 12 15 32 12 68 -2 29 -2 54
1 57 15 15 27 -7 27 -48z m2495 43 c0 -5 -4 -10 -10 -10 -5 0 -10 5 -10 10 0
6 5 10 10 10 6 0 10 -4 10 -10z m-2407 -52 c-3 -29 -6 -70 -6 -91 -1 -27 -5
-36 -15 -32 -8 3 -21 5 -29 5 -14 0 -14 2 -1 18 18 21 21 62 5 62 -8 0 -8 3 0
11 6 6 8 23 3 45 -8 32 -7 34 20 34 28 0 29 0 23 -52z m-174 -25 c-6 -18 -6
-30 2 -39 15 -18 -2 -18 -25 -1 -17 12 -17 14 -2 20 12 5 15 15 11 44 -4 34
-3 36 10 19 10 -13 11 -25 4 -43z m845 15 c17 -14 17 -16 2 -47 -9 -17 -14
-36 -11 -41 8 -13 3 -12 -30 0 -18 7 -25 15 -21 25 3 8 0 15 -6 15 -7 0 -7 4
0 13 11 13 12 16 12 47 0 22 11 19 54 -12z m737 -9 c2 -58 0 -66 -23 -72 -26
-7 -27 -6 -32 19 -3 11 -7 26 -11 35 -4 11 4 23 27 37 18 12 34 20 35 18 2 -2
4 -18 4 -37z m566 -19 c-1 -27 -6 -50 -11 -50 -4 0 -1 -11 8 -25 12 -18 13
-25 4 -25 -18 0 -39 36 -32 55 3 8 2 15 -3 15 -12 0 -10 63 2 72 25 19 34 7
32 -42z m-1891 5 c1 -40 -7 -66 -19 -62 -5 1 -11 14 -13 27 -1 14 -3 30 -4 35
-5 24 1 36 18 33 11 -2 17 -13 18 -33z m1729 6 c3 -5 2 -12 -3 -15 -5 -3 -9 1
-9 9 0 17 3 19 12 6z m-1415 -22 c56 -7 146 -31 265 -72 l180 -62 160 0 160 0
180 62 c191 66 308 89 394 77 30 -4 52 -12 56 -22 4 -12 -1 -14 -29 -9 -29 5
-33 3 -29 -13 7 -25 -15 -123 -29 -131 -14 -9 56 -29 101 -29 76 0 112 94 54
140 -36 28 -18 48 23 27 60 -31 64 -43 54 -146 -6 -51 -7 -103 -4 -116 3 -13
1 -32 -5 -42 -9 -15 -10 -13 -11 14 0 68 -101 108 -265 107 -109 -1 -113 -1
-295 -65 l-185 -64 -170 0 -170 0 -165 57 c-91 31 -199 62 -240 69 -85 13
-186 6 -251 -16 -72 -26 -123 -89 -88 -111 8 -4 9 0 4 15 -8 28 31 64 92 85
26 9 50 16 53 16 4 0 6 -44 5 -97 -2 -87 -5 -99 -25 -115 -12 -10 -32 -18 -44
-18 -29 1 -100 34 -157 75 -102 73 -180 95 -210 58 -13 -15 -12 -15 8 -5 12 7
34 12 49 12 27 0 28 -6 9 -52 -5 -14 -2 -18 13 -18 12 0 28 -10 36 -22 13 -18
16 -19 16 -5 0 9 -11 24 -25 33 -20 13 -23 20 -15 35 10 18 11 18 45 -2 34
-20 34 -21 20 -50 -22 -42 -55 -60 -94 -53 -39 8 -91 55 -91 82 0 28 138 230
162 238 28 8 84 -4 98 -21 7 -8 15 -56 18 -105 6 -108 16 -120 100 -120 45 0
55 -3 59 -20 5 -20 23 -28 23 -11 0 24 -34 41 -80 41 -82 0 -88 12 -92 170
l-3 134 42 24 c40 22 44 22 65 8 12 -9 32 -16 44 -16 17 0 24 -9 32 -42 6 -23
9 -44 7 -47 -2 -2 -34 15 -71 38 -37 23 -68 40 -70 38 -3 -2 3 -37 11 -77 12
-59 13 -75 3 -83 -9 -6 -7 -7 5 -3 10 3 26 6 35 6 11 0 13 3 6 8 -10 6 -34 73
-34 94 0 4 29 -10 65 -32 68 -42 91 -49 82 -27 -12 32 -28 128 -22 137 4 6 -5
10 -19 10 -34 0 -24 27 12 33 49 7 57 7 142 -4z m357 -1 c15 -7 29 -13 31 -13
8 -5 -30 -75 -41 -75 -33 1 -37 14 -28 93 1 10 5 9 38 -5z m554 -5 c0 -10 2
-27 4 -38 4 -21 -10 -35 -36 -35 -15 0 -48 56 -38 63 8 6 54 26 62 26 4 1 7
-7 8 -16z m969 7 c0 -5 -4 -10 -10 -10 -5 0 -10 5 -10 10 0 6 5 10 10 10 6 0
10 -4 10 -10z m-2477 -46 c-8 -21 -23 -17 -23 6 0 13 5 18 14 14 8 -3 12 -12
9 -20z m1084 1 c72 -19 170 -19 248 0 33 8 65 14 71 15 16 0 24 -63 10 -72
-20 -14 -55 -8 -65 10 -9 15 -10 15 -11 -4 0 -25 -36 -34 -140 -34 -87 0 -110
7 -110 34 l0 21 -18 -22 c-23 -30 -72 -21 -72 12 0 29 10 55 21 55 4 0 34 -7
66 -15z m950 -27 c48 -45 13 -126 -50 -114 -17 3 -32 8 -34 9 -1 2 3 31 9 65
10 52 15 62 32 62 11 0 30 -10 43 -22z m-1857 -18 c17 -5 19 -8 8 -9 -10 -1
-18 -5 -18 -11 0 -5 -7 -10 -15 -10 -8 0 -15 2 -15 4 0 2 -3 11 -6 20 -7 17 5
19 46 6z m2110 -15 c0 -30 -5 -31 -36 -6 -22 17 -23 20 -7 24 36 9 43 7 43
-18z m-2040 -21 c0 -8 -4 -12 -10 -9 -5 3 -10 13 -10 21 0 8 5 12 10 9 6 -3
10 -13 10 -21z m1950 16 c0 -12 -28 -25 -36 -17 -9 9 6 27 22 27 8 0 14 -5 14
-10z m108 -72 c21 -29 53 -74 71 -100 l32 -48 -28 11 c-43 16 -83 3 -185 -61
-116 -72 -175 -91 -211 -67 -23 15 -25 23 -29 114 -2 54 -3 99 -2 101 1 2 20
-1 41 -7 61 -17 106 -51 114 -88 7 -36 -5 -43 -77 -43 -43 0 -70 -19 -61 -42
4 -9 6 -7 6 3 1 21 21 29 71 29 51 0 89 18 95 44 3 12 6 57 7 101 3 74 5 80
28 92 14 7 39 13 57 13 28 0 38 -8 71 -52z m-415 -59 c3 -12 10 -18 16 -14 7
3 11 -2 11 -14 0 -10 5 -21 12 -23 6 -2 13 -31 15 -64 l4 -59 -17 29 c-9 16
-18 34 -19 40 -10 37 -18 56 -26 56 -5 0 -6 6 -3 14 3 9 -3 17 -15 21 -17 5
-18 9 -8 20 17 20 24 18 30 -6z m-1033 -63 c0 -2 -7 -6 -15 -10 -8 -3 -15 -1
-15 4 0 6 7 10 15 10 8 0 15 -2 15 -4z m637 -22 c-3 -3 -12 -4 -19 -1 -8 3 -5
6 6 6 11 1 17 -2 13 -5z m889 -9 c12 -8 24 -11 28 -8 3 3 6 -7 6 -24 0 -54
-80 -104 -133 -84 -21 8 -57 55 -57 75 0 3 14 13 31 22 24 12 34 13 43 4 8 -9
5 -16 -11 -27 -13 -9 -23 -23 -23 -32 1 -14 2 -14 11 2 5 9 19 17 29 17 21 0
25 16 10 40 -18 29 31 40 66 15z m-1356 -40 c0 -3 -9 -5 -20 -5 -11 0 -20 7
-20 15 0 13 4 14 20 5 11 -6 20 -13 20 -15z m404 10 c-4 -8 -13 -15 -21 -15
-13 0 -13 3 -3 15 7 8 16 15 21 15 5 0 6 -7 3 -15z m-324 -1 c0 -3 -6 -12 -14
-19 -12 -12 -16 -12 -26 -1 -9 11 -7 15 7 19 28 7 33 7 33 1z m238 -3 c10 -6
9 -11 -4 -22 -12 -9 -15 -10 -10 -1 4 6 2 12 -3 12 -6 0 -11 5 -11 10 0 12 10
13 28 1z m-169 -18 c-26 -34 -52 -53 -62 -46 -6 4 -1 10 10 14 12 4 24 17 28
28 3 12 13 21 22 21 13 0 14 -2 2 -17z m90 3 c7 -8 8 -17 3 -19 -4 -3 -13 3
-20 14 -14 22 0 26 17 5z m-199 -31 c11 -13 10 -14 -4 -9 -9 3 -16 10 -16 15
0 13 6 11 20 -6z m310 6 c0 -5 -7 -11 -15 -15 -15 -5 -20 5 -8 17 9 10 23 9
23 -2z m-70 -20 c0 -17 -18 -21 -24 -6 -3 9 0 15 9 15 8 0 15 -4 15 -9z m20
-36 c0 -8 -7 -15 -16 -15 -14 0 -14 3 -4 15 7 8 14 15 16 15 2 0 4 -7 4 -15z"/>
<path d="M3916 3165 c-9 -26 -7 -32 5 -12 6 10 9 21 6 23 -2 3 -7 -2 -11 -11z"/>
<path d="M3820 3140 l-45 -7 40 -1 c22 -1 47 3 55 8 8 5 11 9 5 8 -5 0 -30 -4
-55 -8z"/>
<path d="M1480 3050 c-8 -5 -10 -10 -5 -10 6 0 17 5 25 10 8 5 11 10 5 10 -5
0 -17 -5 -25 -10z"/>
<path d="M3701 3042 c10 -17 10 -23 0 -36 -12 -14 -10 -16 10 -17 22 0 23 -1
4 -9 -19 -8 -19 -9 3 -9 27 -1 30 -21 2 -21 -21 0 -38 -40 -25 -59 7 -12 44
-15 46 -3 1 4 2 21 3 37 1 17 5 35 9 42 5 7 -1 17 -15 25 -14 8 -23 22 -23 37
0 13 -6 26 -13 29 -11 3 -11 0 -1 -16z m14 -111 c-3 -6 3 -14 12 -20 16 -9 14
-11 -14 -11 -5 0 -8 6 -9 13 0 14 5 27 12 27 3 0 3 -4 -1 -9z"/>
<path d="M3665 2935 c0 -18 3 -31 8 -28 4 2 7 15 7 28 0 13 -3 26 -7 28 -5 3
-8 -10 -8 -28z"/>
<path d="M3849 3003 c-13 -16 -12 -17 4 -4 16 13 21 21 13 21 -2 0 -10 -8 -17
-17z"/>
<path d="M1542 2645 c0 -16 2 -22 5 -12 2 9 2 23 0 30 -3 6 -5 -1 -5 -18z"/>
<path d="M1556 2612 c-5 -18 -5 -36 -2 -39 7 -7 19 43 13 59 -2 7 -7 -2 -11
-20z"/>
<path d="M1472 2540 c0 -19 2 -27 5 -17 2 9 2 25 0 35 -3 9 -5 1 -5 -18z"/>
<path d="M1461 2484 c0 -11 3 -14 6 -6 3 7 2 16 -1 19 -3 4 -6 -2 -5 -13z"/>
<path d="M1491 2469 c-6 -18 -9 -34 -7 -36 2 -2 9 10 15 28 6 18 9 34 7 36 -2
2 -9 -10 -15 -28z"/>
<path d="M1451 2444 c0 -11 3 -14 6 -6 3 7 2 16 -1 19 -3 4 -6 -2 -5 -13z"/>
<path d="M1442 2395 c0 -16 2 -22 5 -12 2 9 2 23 0 30 -3 6 -5 -1 -5 -18z"/>
<path d="M1466 2394 c-4 -14 -5 -28 -3 -31 3 -2 8 8 11 23 4 14 5 28 3 31 -3
2 -8 -8 -11 -23z"/>
<path d="M1132 2635 c0 -16 2 -22 5 -12 2 9 2 23 0 30 -3 6 -5 -1 -5 -18z"/>
<path d="M1146 2570 c4 -19 10 -42 15 -50 11 -18 1 34 -13 65 -5 13 -6 9 -2
-15z"/>
<path d="M1181 2584 c0 -11 3 -14 6 -6 3 7 2 16 -1 19 -3 4 -6 -2 -5 -13z"/>
<path d="M730 2431 c-20 -22 -22 -64 -2 -56 8 3 21 0 28 -6 11 -9 14 -8 14 6
0 10 8 24 18 31 16 13 16 13 -2 14 -10 0 -24 6 -30 14 -9 11 -13 10 -26 -3z"/>
<path d="M750 2311 c-22 -24 -21 -63 1 -56 9 3 20 1 24 -5 10 -16 25 -12 18 5
-3 9 2 22 13 30 19 14 19 14 0 15 -10 0 -24 6 -30 14 -9 11 -13 10 -26 -3z"/>
<path d="M2535 2286 c-11 -9 -27 -16 -36 -16 -9 0 -22 -6 -28 -14 -11 -13 -6
-14 31 -11 23 2 38 1 31 -3 -6 -4 -10 -27 -9 -51 1 -31 -3 -46 -14 -49 -13 -5
-13 -3 0 14 8 10 -1 5 -20 -12 -19 -18 -45 -35 -58 -39 -36 -11 -15 -25 39
-25 44 0 49 -2 48 -22 0 -21 -1 -22 -8 -4 -7 18 -8 18 -14 -5 -9 -33 -7 -48 3
-24 8 18 9 17 9 -7 1 -24 -2 -27 -21 -24 -13 3 -26 5 -30 5 -5 1 -8 8 -8 16 0
8 -6 15 -13 15 -22 0 -47 34 -47 63 0 21 -5 27 -21 27 -14 0 -19 -5 -17 -17 2
-10 10 -17 16 -16 33 7 -2 -48 -38 -59 -11 -4 -6 -13 20 -38 26 -24 34 -39 32
-60 -3 -27 -2 -28 43 -28 36 1 49 -3 61 -20 19 -28 38 -29 31 -2 -3 11 -1 20
4 20 4 0 13 -9 19 -20 6 -11 16 -20 22 -20 5 0 8 9 5 20 -7 26 9 26 23 -1 14
-24 36 -20 32 7 -2 17 0 16 17 -4 24 -27 47 -21 31 8 -7 14 -7 21 3 27 7 4 20
20 30 36 10 15 23 27 30 27 13 0 41 39 34 47 -3 2 -14 5 -24 6 -11 0 -20 6
-20 12 1 64 -3 75 -29 75 -19 0 -25 -4 -22 -17 2 -10 10 -17 16 -16 7 2 12 -3
12 -10 -1 -17 -25 -47 -38 -47 -6 0 -16 -8 -21 -17 -9 -16 -12 -16 -21 -3 -8
13 -10 12 -10 -5 0 -17 -2 -17 -10 -5 -5 8 -9 26 -9 40 0 23 1 24 10 5 8 -17
9 -17 4 5 -3 14 -8 35 -11 48 -5 16 -2 22 9 22 16 0 77 64 77 80 0 6 -10 6
-26 0 -14 -6 -35 -8 -47 -6 -12 1 -16 1 -9 -1 16 -6 5 -23 -15 -23 -15 0 -15
12 2 53 5 12 2 17 -8 17 -10 0 -17 11 -19 31 -3 28 -4 29 -23 15z m1 -294
c-13 -13 -17 9 -9 55 l8 48 3 -49 c2 -26 1 -51 -2 -54z m49 46 c0 -32 -4 -48
-12 -48 -9 0 -13 16 -13 48 0 32 4 49 13 49 8 0 12 -17 12 -49z m-180 2 c3 -5
1 -10 -4 -10 -6 0 -11 5 -11 10 0 6 2 10 4 10 3 0 8 -4 11 -10z"/>
<path d="M2535 1767 c-11 -8 -32 -17 -47 -21 -43 -10 -33 -25 14 -21 26 3 37
1 29 -4 -8 -5 -11 -16 -7 -26 9 -24 -37 -82 -80 -102 -39 -19 -35 -35 10 -33
59 4 66 1 65 -22 0 -21 -1 -22 -8 -4 -7 18 -8 18 -14 -5 -9 -33 -7 -48 3 -24
8 19 9 19 9 -2 1 -19 -4 -23 -29 -23 -20 0 -30 5 -30 15 0 8 -6 15 -14 15 -20
0 -46 39 -46 67 0 17 -6 23 -21 23 -14 0 -19 -5 -17 -17 2 -10 10 -17 16 -16
7 2 12 -3 12 -10 0 -17 -32 -47 -49 -47 -19 0 6 -39 33 -52 18 -8 23 -18 22
-41 -1 -31 1 -32 42 -34 32 -1 48 -7 59 -22 18 -27 37 -27 30 -1 -3 11 -1 20
4 20 4 0 13 -9 19 -20 14 -27 30 -25 30 3 l0 22 19 -24 c20 -26 44 -21 35 7
-4 12 0 10 15 -6 24 -27 47 -21 31 8 -8 15 0 28 47 74 57 58 60 66 26 69 -11
0 -20 6 -20 12 1 64 -3 75 -29 75 -19 0 -25 -4 -22 -17 2 -10 10 -17 16 -16 7
2 12 -3 12 -10 -1 -20 -26 -47 -44 -47 -9 0 -16 -7 -16 -15 0 -8 -4 -15 -10
-15 -5 0 -10 6 -10 13 0 7 -3 8 -8 2 -4 -5 -17 -11 -29 -13 -21 -3 -23 0 -23
50 0 34 3 48 9 39 7 -11 10 -9 16 8 3 11 12 21 20 21 15 0 75 65 75 81 0 7 -7
8 -17 3 -10 -4 -34 -7 -53 -7 -25 1 -29 -1 -16 -6 19 -7 19 -8 1 -14 -25 -10
-30 -1 -17 28 15 33 15 35 -2 35 -9 0 -16 12 -18 30 -3 28 -4 30 -23 17z m-10
-136 c-3 -6 -11 -11 -17 -11 -6 0 -6 6 2 15 14 17 26 13 15 -4z m11 -149 c-13
-12 -16 8 -9 49 l8 44 3 -44 c2 -23 1 -46 -2 -49z m-156 38 c0 -5 -5 -10 -11
-10 -5 0 -7 5 -4 10 3 6 8 10 11 10 2 0 4 -4 4 -10z m25 0 c3 -5 1 -10 -4 -10
-6 0 -11 5 -11 10 0 6 2 10 4 10 3 0 8 -4 11 -10z"/>
<path d="M2585 1548 c-4 -15 -5 -33 -2 -40 3 -7 6 -2 7 12 1 23 2 23 10 5 11
-26 12 3 0 30 -7 18 -8 18 -15 -7z"/>
<path d="M2535 1246 c-11 -8 -31 -16 -44 -18 -46 -6 -36 -27 11 -23 24 1 37 1
31 -2 -16 -6 -17 -33 -2 -33 19 0 -52 -80 -90 -100 -38 -20 -37 -22 19 -24 34
-1 35 -2 33 -41 -1 -30 1 -35 7 -20 8 19 9 19 9 -2 1 -19 -4 -23 -29 -23 -20
0 -30 5 -30 15 0 8 -6 15 -14 15 -21 0 -46 39 -46 71 0 22 -4 26 -20 22 -23
-6 -27 -33 -5 -33 8 0 15 -6 15 -13 0 -17 -32 -47 -49 -47 -19 0 7 -40 32 -49
17 -6 22 -17 22 -42 0 -33 1 -34 43 -35 32 0 46 -6 58 -22 19 -27 38 -29 31
-2 -3 11 -1 20 4 20 4 0 13 -9 19 -20 14 -27 30 -25 30 3 l0 22 19 -24 c20
-26 44 -21 34 7 -5 13 -1 12 19 -6 27 -24 43 -20 28 8 -8 15 1 29 47 74 57 57
60 66 27 68 -15 2 -20 11 -22 41 -3 51 -7 56 -32 50 -22 -6 -23 -40 -2 -36 7
2 12 -3 12 -10 -1 -20 -26 -47 -44 -47 -9 0 -16 -7 -16 -15 0 -18 -16 -20 -23
-2 -4 9 -6 9 -6 -1 -2 -26 -21 0 -20 26 0 24 1 25 9 7 11 -26 12 3 0 30 -7 18
-8 18 -15 -8 -4 -15 -5 -36 -2 -47 3 -13 0 -20 -9 -20 -10 0 -14 14 -14 53 0
33 3 47 9 38 7 -11 10 -9 16 8 3 11 12 21 20 21 15 0 75 65 75 81 0 7 -7 8
-17 3 -10 -4 -34 -7 -53 -7 -25 1 -29 -1 -16 -6 19 -7 19 -8 1 -14 -25 -10
-30 -1 -17 28 15 33 15 35 -2 35 -9 0 -16 12 -18 30 -3 29 -4 30 -23 16z m-8
-131 c-4 -8 -11 -15 -17 -15 -6 0 -6 7 2 20 14 22 24 19 15 -5z m9 -153 c-10
-9 -14 1 -20 43 -4 30 -3 34 3 15 9 -24 9 -23 12 10 2 29 3 27 6 -14 2 -26 2
-51 -1 -54z m-156 38 c0 -5 -5 -10 -11 -10 -5 0 -7 5 -4 10 3 6 8 10 11 10 2
0 4 -4 4 -10z m25 0 c3 -5 1 -10 -4 -10 -6 0 -11 5 -11 10 0 6 2 10 4 10 3 0
8 -4 11 -10z"/>
<path d="M1282 2234 c-1 -23 -4 -63 -7 -90 l-4 -49 9 45 c6 25 9 65 7 90 l-3
45 -2 -41z"/>
<path d="M1341 2244 c0 -11 3 -14 6 -6 3 7 2 16 -1 19 -3 4 -6 -2 -5 -13z"/>
<path d="M1362 2210 c0 -14 2 -19 5 -12 2 6 2 18 0 25 -3 6 -5 1 -5 -13z"/>
<path d="M1325 2175 c-3 -26 -4 -49 -2 -51 3 -3 8 16 12 41 3 26 4 49 2 51 -3
3 -8 -16 -12 -41z"/>
<path d="M1345 2140 c-4 -23 -5 -43 -2 -46 2 -3 7 14 11 37 4 23 5 44 2 46 -2
2 -7 -14 -11 -37z"/>
<path d="M1383 2110 c0 -30 2 -43 4 -27 2 15 2 39 0 55 -2 15 -4 2 -4 -28z"/>
<path d="M1312 2085 c0 -16 2 -22 5 -12 2 9 2 23 0 30 -3 6 -5 -1 -5 -18z"/>
<path d="M1262 2070 c0 -14 2 -19 5 -12 2 6 2 18 0 25 -3 6 -5 1 -5 -13z"/>
<path d="M1326 2022 c-5 -35 -5 -66 -2 -69 3 -4 7 11 8 33 1 21 5 -8 8 -66 l6
-105 1 110 c1 138 -10 189 -21 97z"/>
<path d="M1302 2020 c0 -19 2 -27 5 -17 2 9 2 25 0 35 -3 9 -5 1 -5 -18z"/>
<path d="M1373 1980 c0 -41 2 -58 4 -37 2 20 2 54 0 75 -2 20 -4 3 -4 -38z"/>
<path d="M1252 2020 c0 -14 2 -19 5 -12 2 6 2 18 0 25 -3 6 -5 1 -5 -13z"/>
<path d="M1242 1970 c0 -14 2 -19 5 -12 2 6 2 18 0 25 -3 6 -5 1 -5 -13z"/>
<path d="M1293 1945 c0 -22 2 -30 4 -17 2 12 2 30 0 40 -3 9 -5 -1 -4 -23z"/>
<path d="M1232 1920 c0 -14 2 -19 5 -12 2 6 2 18 0 25 -3 6 -5 1 -5 -13z"/>
<path d="M1313 1880 c0 -36 2 -50 4 -32 2 17 2 47 0 65 -2 17 -4 3 -4 -33z"/>
<path d="M1283 1855 c0 -27 2 -38 4 -22 2 15 2 37 0 50 -2 12 -4 0 -4 -28z"/>
<path d="M1222 1870 c0 -14 2 -19 5 -12 2 6 2 18 0 25 -3 6 -5 1 -5 -13z"/>
<path d="M1383 1845 c0 -27 2 -38 4 -22 2 15 2 37 0 50 -2 12 -4 0 -4 -28z"/>
<path d="M1212 1820 c0 -14 2 -19 5 -12 2 6 2 18 0 25 -3 6 -5 1 -5 -13z"/>
<path d="M1303 1735 c0 -44 2 -61 4 -37 2 23 2 59 0 80 -2 20 -4 1 -4 -43z"/>
<path d="M1355 1735 c4 -81 24 -199 32 -191 3 2 0 29 -6 58 -7 30 -16 90 -21
134 l-9 79 4 -80z"/>
<path d="M1267 1708 c-4 -51 -9 -214 -11 -363 -2 -148 -2 -218 0 -155 2 63 8
225 14 359 11 241 9 337 -3 159z"/>
<path d="M1202 1765 c0 -16 2 -22 5 -12 2 9 2 23 0 30 -3 6 -5 -1 -5 -18z"/>
<path d="M1392 1765 c0 -16 2 -22 5 -12 2 9 2 23 0 30 -3 6 -5 -1 -5 -18z"/>
<path d="M1192 1705 c0 -16 2 -22 5 -12 2 9 2 23 0 30 -3 6 -5 -1 -5 -18z"/>
<path d="M1402 1710 c0 -14 2 -19 5 -12 2 6 2 18 0 25 -3 6 -5 1 -5 -13z"/>
<path d="M1410 1669 c0 -22 35 -123 57 -159 9 -17 23 -30 30 -30 7 0 1 11 -12
24 -13 13 -35 59 -49 102 -14 44 -25 72 -26 63z"/>
<path d="M1177 1611 c-4 -35 -6 -85 -6 -110 1 -27 5 -7 10 49 10 108 7 158 -4
61z"/>
<path d="M1313 1590 c0 -36 2 -50 4 -32 2 17 2 47 0 65 -2 17 -4 3 -4 -33z"/>
<path d="M1391 1520 c-2 -42 84 -180 112 -180 5 0 -2 9 -17 21 -27 21 -57 73
-81 138 -8 20 -14 29 -14 21z"/>
<path d="M1322 1490 c0 -19 2 -27 5 -17 2 9 2 25 0 35 -3 9 -5 1 -5 -18z"/>
<path d="M1365 1496 c16 -81 119 -236 156 -236 8 0 2 8 -13 18 -44 29 -93 105
-134 212 -12 29 -13 30 -9 6z"/>
<path d="M1347 1413 c-7 -60 2 -111 15 -91 6 8 7 1 3 -22 -5 -27 -4 -32 5 -20
9 12 10 10 6 -12 -3 -14 -2 -37 3 -50 6 -13 10 -18 10 -11 1 6 4 20 7 30 5 15
4 16 -6 3 -10 -12 -11 -11 -6 10 6 33 -19 143 -27 115 -3 -11 -3 6 0 38 7 69
-2 77 -10 10z"/>
<path d="M1332 1425 c0 -16 2 -22 5 -12 2 9 2 23 0 30 -3 6 -5 -1 -5 -18z"/>
<path d="M1332 1140 c0 -14 2 -19 5 -12 2 6 2 18 0 25 -3 6 -5 1 -5 -13z"/>
<path d="M1361 1114 c0 -11 3 -14 6 -6 3 7 2 16 -1 19 -3 4 -6 -2 -5 -13z"/>
<path d="M1242 1040 c0 -14 2 -19 5 -12 2 6 2 18 0 25 -3 6 -5 1 -5 -13z"/>
<path d="M1599 937 c5 -5 19 -7 32 -5 20 3 19 5 -9 9 -20 3 -29 2 -23 -4z"/>
<path d="M1276 931 c17 -4 37 -11 45 -15 8 -4 5 0 -5 8 -11 9 -31 16 -45 15
-24 -1 -24 -2 5 -8z"/>
<path d="M3428 2133 c-20 -23 -41 -64 -36 -69 3 -2 17 15 32 37 28 44 30 62 4
32z"/>
<path d="M3445 2090 c-9 -18 -18 -58 -20 -89 l-4 -56 9 53 c6 29 17 67 26 83
8 17 13 33 10 36 -2 3 -12 -10 -21 -27z"/>
<path d="M936 1968 c3 -4 9 -8 15 -8 5 0 9 4 9 8 0 5 -7 9 -15 9 -8 0 -12 -4
-9 -9z"/>
<path d="M2103 1425 c-3 -9 -3 -18 -1 -21 3 -3 8 4 11 16 6 23 -1 27 -10 5z"/>
<path d="M2136 1354 c-4 -14 -5 -28 -3 -31 3 -2 8 8 11 23 4 14 5 28 3 31 -3
2 -8 -8 -11 -23z"/>
<path d="M2096 1345 c-9 -26 -7 -32 5 -12 6 10 9 21 6 23 -2 3 -7 -2 -11 -11z"/>
<path d="M2203 1445 c-7 -8 -9 -16 -5 -19 4 -3 13 4 20 15 14 22 3 25 -15 4z"/>
<path d="M2036 1195 c-9 -26 -7 -32 5 -12 6 10 9 21 6 23 -2 3 -7 -2 -11 -11z"/>
<path d="M1878 701 c2 -33 -1 -68 -7 -80 -10 -18 -8 -21 23 -26 41 -8 68 -4
73 11 2 7 -8 9 -27 6 -28 -4 -30 -2 -30 27 0 24 4 31 19 31 11 0 21 -6 23 -12
3 -7 7 -2 10 10 5 19 2 22 -24 22 -23 0 -29 4 -24 16 3 9 6 20 6 25 0 14 38
11 43 -3 4 -8 6 -7 6 3 1 17 -26 29 -69 29 -24 0 -25 -2 -22 -59z"/>
<path d="M3177 752 c6 -4 14 -29 18 -56 l8 -49 -67 48 c-37 26 -69 45 -72 43
-2 -3 0 -36 5 -73 6 -38 8 -72 5 -77 -3 -4 7 -8 23 -8 17 0 23 3 16 8 -7 5
-16 30 -19 56 l-7 48 63 -46 c35 -25 68 -46 72 -46 5 0 6 17 2 38 -3 20 -6 56
-7 79 -2 39 -5 43 -27 43 -14 0 -20 -3 -13 -8z"/>
<path d="M2021 663 c4 -46 9 -86 12 -89 2 -3 20 13 39 36 19 22 38 40 41 40 4
0 7 -22 7 -49 0 -28 4 -52 9 -56 5 -3 30 22 56 55 25 33 51 60 56 60 6 0 7 5
4 10 -12 20 -31 8 -60 -38 l-30 -47 -10 63 -10 63 -40 -48 c-43 -52 -53 -46
-37 25 9 39 8 41 -17 50 l-26 9 6 -84z"/>
<path d="M2904 610 c-5 -49 -7 -90 -4 -89 15 2 43 18 33 18 -7 1 -13 12 -13
25 0 35 45 45 69 15 15 -19 21 -20 47 -11 16 6 22 11 12 11 -9 1 -41 28 -71
61 -29 33 -56 60 -59 60 -3 0 -9 -40 -14 -90z m43 13 c2 -6 -3 -13 -12 -16
-10 -5 -15 0 -15 14 0 21 21 22 27 2z"/>
<path d="M2749 643 c-14 -3 -13 -11 8 -70 42 -117 7 -128 -57 -18 -25 41 -47
71 -51 67 -3 -4 -14 -38 -23 -77 -10 -38 -22 -75 -28 -82 -8 -10 -5 -13 14
-13 21 0 25 4 20 25 -3 20 1 27 23 35 15 6 29 9 30 8 1 -2 8 -13 14 -25 6 -13
21 -23 32 -23 28 0 149 40 149 49 0 17 -13 19 -27 6 -8 -8 -20 -15 -28 -15
-14 0 -58 117 -49 131 5 9 0 10 -27 2z m-85 -111 c-21 -5 -26 2 -18 22 6 15 7
15 20 -1 11 -15 10 -19 -2 -21z"/>
<path d="M2327 633 c-13 -13 -7 -21 13 -16 11 3 31 2 45 -1 25 -6 24 -8 -35
-63 -34 -31 -57 -59 -53 -63 8 -7 93 -30 112 -30 6 0 11 6 11 14 0 8 -7 12
-17 10 -10 -2 -31 -1 -47 4 l-29 8 62 53 c33 29 61 56 61 60 0 4 -23 13 -51
19 -59 14 -63 14 -72 5z"/>
<path d="M2475 530 l0 -80 53 0 c42 0 52 3 52 17 0 13 -3 14 -12 5 -7 -7 -20
-12 -30 -12 -14 0 -18 8 -18 36 0 34 2 36 25 30 19 -5 25 -2 25 9 0 11 -6 14
-25 9 -23 -6 -25 -3 -25 25 0 24 4 31 19 31 11 0 22 -6 24 -12 3 -8 6 -6 6 5
1 14 -8 17 -46 17 l-48 0 0 -80z"/>
<path d="M2250 580 c0 -13 5 -18 15 -14 8 4 15 12 15 20 0 8 -7 14 -15 14 -8
0 -15 -9 -15 -20z"/>
<path d="M1500 545 c0 -8 7 -15 15 -15 8 0 15 7 15 15 0 8 -7 15 -15 15 -8 0
-15 -7 -15 -15z"/>
<path d="M3554 549 c-3 -6 0 -15 7 -20 14 -8 32 9 23 23 -7 11 -22 10 -30 -3z"/>
<path d="M1312 3064 c-13 -9 -21 -22 -18 -29 3 -8 -2 -19 -10 -25 -8 -7 -14
-18 -13 -24 0 -6 3 -5 6 2 3 8 19 23 37 34 25 15 26 18 7 13 -38 -11 -20 18
20 32 22 8 27 12 14 12 -11 1 -31 -6 -43 -15z"/>
<path d="M4061 2515 c1 -53 3 -56 9 -25 7 31 7 32 9 8 0 -16 6 -28 11 -28 15
0 2 71 -16 90 -12 12 -14 6 -13 -45z"/>
<path d="M12288 2513 c-32 -2 -58 -8 -58 -14 0 -5 -54 -136 -121 -292 -66
-155 -123 -288 -126 -295 -4 -10 15 -12 88 -10 l93 3 17 45 17 45 108 3 109 3
20 -53 21 -53 79 -3 c44 -1 86 2 93 6 10 7 4 30 -31 108 -24 54 -82 187 -127
294 -88 206 -96 221 -114 218 -6 -1 -37 -3 -68 -5z m51 -308 c17 -43 29 -80
27 -82 -2 -2 -31 -3 -64 -1 l-59 3 30 83 c16 45 31 81 33 80 1 -2 16 -39 33
-83z"/>
<path d="M2354 2495 c-115 -21 -224 -56 -224 -73 0 -9 6 -12 18 -7 9 4 60 19
112 33 87 24 111 26 290 26 203 0 204 0 409 -60 18 -5 23 -4 19 7 -6 19 -114
53 -229 73 -110 19 -295 19 -395 1z"/>
<path d="M4650 2435 l0 -75 90 0 91 0 -3 -230 -3 -230 93 0 92 0 0 230 0 230
89 0 89 0 4 75 3 75 -272 0 -273 0 0 -75z"/>
<path d="M5865 2205 l0 -305 92 0 92 0 3 120 3 120 94 -125 94 -125 56 1 c31
0 77 4 102 7 l47 7 -125 154 c-68 84 -122 157 -121 162 2 5 51 66 109 136 58
71 109 134 113 141 5 9 -15 12 -91 12 l-99 0 -89 -121 -90 -120 -3 120 -3 121
-92 0 -92 0 0 -305z"/>
<path d="M6500 2488 c0 -7 -3 -30 -6 -50 l-7 -38 166 0 165 0 4 50 3 50 -162
0 c-124 0 -163 -3 -163 -12z"/>
<path d="M3975 2444 c-4 -21 -9 -47 -12 -56 -2 -10 0 -18 6 -18 6 0 11 15 12
33 1 30 1 31 9 7 7 -23 8 -22 9 10 1 55 -16 72 -24 24z"/>
<path d="M9128 2433 c-68 -25 -68 -25 -68 -64 0 -35 -3 -39 -24 -39 -31 0 -35
-7 -43 -70 l-6 -50 32 0 31 0 0 -92 c0 -51 5 -111 10 -133 18 -81 105 -120
208 -95 49 11 50 12 56 57 10 75 11 74 -34 67 -62 -10 -70 3 -70 107 l0 88 53
3 52 3 0 55 0 55 -52 3 -53 3 0 65 c0 74 3 72 -92 37z"/>
<path d="M13253 2433 l-73 -25 0 -39 c0 -35 -3 -39 -24 -39 -31 0 -33 -4 -42
-68 l-7 -52 32 0 31 0 0 -85 c0 -118 15 -179 51 -209 33 -28 99 -41 158 -31
56 9 71 27 71 85 l0 48 -42 -5 c-57 -8 -68 9 -68 113 l0 83 53 3 52 3 3 58 3
57 -56 0 -55 0 0 65 c0 36 -3 65 -7 64 -5 0 -41 -12 -80 -26z"/>
<path d="M10665 2421 c-25 -11 -51 -40 -59 -67 -6 -19 -14 -21 -74 -20 -80 0
-150 -29 -184 -77 -34 -47 -33 -145 1 -181 l25 -26 -26 -28 c-40 -41 -44 -74
-15 -108 l24 -28 -31 -21 c-40 -27 -53 -63 -35 -100 20 -41 79 -67 164 -73
150 -9 279 60 292 157 12 85 -44 120 -207 130 -84 5 -105 9 -105 21 0 12 11
14 52 12 74 -5 151 20 192 62 28 29 35 45 39 88 3 45 0 59 -22 91 -34 50 -33
57 9 57 l35 0 0 50 c0 28 1 53 3 58 3 10 -54 13 -78 3z m-105 -210 c23 -45 1
-111 -38 -111 -26 0 -52 32 -52 62 0 45 17 68 50 68 19 0 33 -7 40 -19z m14
-361 c36 -13 32 -38 -9 -56 -65 -27 -155 -12 -155 25 0 11 8 25 18 30 22 13
113 14 146 1z"/>
<path d="M3830 2323 c0 -12 -3 -28 -6 -37 -4 -10 -1 -16 9 -16 8 0 18 -6 20
-12 3 -7 3 3 0 22 -8 46 -22 74 -23 43z"/>
<path d="M4081 2300 c0 -30 2 -40 8 -31 7 11 10 10 14 -5 4 -18 5 -18 5 1 1
11 -5 34 -13 50 l-13 30 -1 -45z"/>
<path d="M5378 2326 c-103 -28 -163 -111 -163 -226 0 -112 62 -187 174 -211
63 -13 139 -5 197 20 39 18 42 22 48 71 4 29 5 55 2 57 -3 3 -26 -3 -51 -13
-63 -24 -157 -24 -183 -1 -11 10 -22 26 -25 36 -4 17 6 19 114 23 161 7 180
25 144 129 -21 60 -60 97 -119 114 -59 18 -76 18 -138 1z m114 -132 c15 -32 8
-37 -57 -42 -50 -4 -55 -3 -55 15 0 21 24 47 50 55 26 8 51 -4 62 -28z"/>
<path d="M6595 2330 c-22 -4 -59 -16 -83 -25 l-43 -18 6 -51 c4 -28 9 -54 11
-57 2 -3 27 2 56 12 83 29 126 22 141 -22 4 -14 -5 -18 -56 -24 -71 -7 -133
-32 -161 -63 -11 -13 -21 -43 -24 -72 -4 -46 -2 -52 31 -85 31 -31 41 -35 86
-35 52 0 97 16 120 43 10 13 16 11 41 -14 24 -25 36 -29 82 -29 29 0 58 4 64
8 6 4 15 26 19 49 6 38 5 42 -17 45 -23 3 -23 5 -23 118 0 133 -15 173 -75
202 -44 21 -122 29 -175 18z m85 -284 c0 -38 -21 -66 -50 -66 -18 0 -40 27
-40 49 0 20 40 51 65 51 22 0 25 -4 25 -34z"/>
<path d="M7720 2326 c-30 -7 -68 -18 -83 -24 -28 -12 -28 -13 -21 -70 3 -31 8
-58 9 -60 2 -2 16 3 32 11 70 37 163 30 163 -12 0 -15 -11 -20 -52 -25 -127
-17 -188 -61 -188 -136 0 -81 41 -120 125 -120 50 0 77 10 113 43 12 11 22 15
22 9 0 -7 9 -21 20 -32 15 -15 33 -20 78 -20 31 0 62 4 68 8 6 4 13 26 16 49
5 37 4 42 -16 45 -20 3 -21 10 -26 128 -6 141 -17 171 -74 195 -50 21 -125 26
-186 11z m100 -280 c0 -54 -46 -86 -78 -54 -32 32 4 88 55 88 19 0 23 -5 23
-34z"/>
<path d="M8336 2330 c-16 -5 -46 -23 -66 -39 -42 -33 -50 -31 -50 11 l0 29
-77 -7 c-43 -4 -79 -8 -81 -9 -2 -1 -4 -95 -5 -209 l-2 -206 88 0 87 0 0 134
c0 133 0 135 26 155 32 25 47 26 69 5 14 -14 16 -37 13 -155 l-3 -139 88 0 89
0 -4 173 c-4 218 -16 246 -108 261 -19 3 -48 1 -64 -4z"/>
<path d="M8710 2333 c-45 -8 -118 -34 -127 -46 -6 -7 -6 -33 -1 -64 l9 -51 37
15 c50 21 140 23 152 3 23 -35 12 -45 -51 -47 -120 -4 -201 -73 -185 -158 11
-59 44 -87 108 -93 58 -4 125 17 135 45 4 9 13 4 33 -17 24 -26 35 -30 80 -30
74 0 90 11 90 64 0 36 -3 44 -17 42 -16 -1 -19 13 -23 119 -3 66 -10 129 -17
140 -37 65 -122 95 -223 78z m80 -281 c0 -15 -7 -38 -16 -50 -28 -40 -74 -22
-74 28 0 29 27 48 68 49 18 1 22 -4 22 -27z"/>
<path d="M9480 2326 c-30 -7 -68 -18 -84 -25 -28 -11 -28 -12 -21 -69 4 -31 8
-58 10 -60 2 -2 16 3 32 11 70 37 163 30 163 -12 0 -15 -11 -20 -52 -25 -87
-11 -127 -28 -158 -63 -24 -27 -30 -43 -30 -81 1 -75 42 -112 125 -112 50 0
77 10 113 43 18 17 22 18 22 4 0 -28 41 -47 100 -47 30 0 60 4 66 8 6 4 13 26
16 49 3 36 1 43 -17 45 -19 3 -20 12 -25 128 -6 141 -17 171 -74 195 -50 21
-125 26 -186 11z m100 -280 c0 -54 -46 -86 -78 -54 -32 32 4 88 55 88 19 0 23
-5 23 -34z"/>
<path d="M10086 2326 c-21 -8 -50 -26 -65 -40 -36 -34 -41 -33 -41 10 l0 36
-77 -7 c-43 -4 -79 -9 -81 -10 -2 -2 -4 -96 -5 -209 l-2 -206 88 0 87 0 0 134
c0 133 0 135 26 155 29 23 42 25 64 11 12 -8 15 -36 15 -155 l0 -145 88 0 89
0 -4 173 c-5 218 -16 246 -108 261 -20 3 -52 0 -74 -8z"/>
<path d="M10905 2330 c-22 -4 -59 -16 -83 -25 l-43 -18 6 -51 c9 -66 11 -68
43 -52 69 36 162 28 162 -13 0 -15 -11 -20 -52 -25 -127 -17 -188 -61 -188
-136 0 -81 41 -120 125 -120 50 0 77 10 113 43 12 11 22 15 22 9 0 -29 44 -52
99 -52 31 0 61 4 67 8 6 4 13 26 16 49 5 37 4 42 -16 45 -20 3 -21 10 -26 128
-6 141 -17 171 -74 195 -44 19 -122 26 -171 15z m85 -284 c0 -54 -46 -86 -78
-54 -32 32 4 88 55 88 19 0 23 -5 23 -34z"/>
<path d="M11529 2327 c-139 -39 -206 -200 -138 -333 68 -132 263 -153 368 -39
100 108 74 289 -49 351 -58 29 -123 37 -181 21z m100 -126 c55 -55 31 -201
-34 -201 -44 0 -59 23 -63 96 -3 59 -1 73 18 97 25 32 52 35 79 8z"/>
<path d="M12825 2331 c-110 -27 -175 -113 -175 -231 0 -77 16 -115 68 -162 71
-65 175 -75 269 -26 67 34 106 98 111 184 8 118 -44 197 -150 229 -55 16 -76
17 -123 6z m91 -132 c12 -14 19 -40 22 -82 3 -52 0 -66 -18 -89 -21 -27 -53
-36 -76 -20 -22 14 -34 52 -34 107 0 46 4 60 25 80 29 30 56 32 81 4z"/>
<path d="M13644 2331 c-208 -50 -247 -326 -60 -424 62 -32 183 -31 251 3 50
25 50 25 53 78 3 57 1 59 -49 38 -61 -25 -130 -29 -169 -9 -20 11 -36 27 -38
39 -3 20 2 21 118 27 152 7 167 20 139 120 -27 97 -135 154 -245 128z m86
-121 c40 -40 21 -60 -56 -60 -36 0 -44 3 -44 18 0 25 38 58 73 61 4 1 16 -8
27 -19z"/>
<path d="M14065 2330 c-72 -14 -126 -41 -121 -59 2 -9 7 -35 11 -58 l6 -41 37
15 c50 21 140 23 152 3 22 -35 12 -45 -50 -47 -71 -2 -142 -31 -165 -67 -41
-62 -20 -153 41 -176 57 -22 167 0 181 37 4 9 13 4 33 -17 24 -26 35 -30 80
-30 74 0 90 11 90 64 0 36 -3 44 -17 42 -16 -1 -19 13 -23 119 -3 66 -10 129
-17 140 -40 70 -127 97 -238 75z m92 -286 c-7 -42 -23 -64 -46 -64 -25 0 -41
20 -41 52 0 30 23 46 69 47 22 1 23 -2 18 -35z"/>
<path d="M14665 2325 c-22 -8 -55 -30 -72 -49 l-33 -36 0 47 0 46 -52 -7 c-29
-3 -68 -6 -85 -6 l-33 0 0 -210 0 -210 88 0 87 0 -3 101 c-5 143 15 179 104
179 42 0 46 8 42 93 l-3 65 -40 -13z"/>
<path d="M14888 2327 c-109 -31 -168 -112 -168 -231 1 -133 113 -229 250 -213
103 12 176 77 200 178 41 170 -111 313 -282 266z m88 -115 c23 -15 34 -52 34
-111 0 -48 -4 -65 -20 -81 -42 -42 -92 -17 -105 53 -17 92 37 175 91 139z"/>
<path d="M15345 2330 c-22 -4 -59 -16 -83 -25 -41 -17 -42 -18 -37 -54 14 -86
8 -80 67 -60 66 23 97 24 126 3 39 -27 27 -41 -40 -48 -130 -15 -193 -68 -185
-156 4 -34 12 -51 37 -73 30 -27 37 -29 97 -25 52 3 68 9 89 29 l26 26 28 -29
c24 -24 36 -28 84 -28 65 0 86 16 86 66 0 27 -4 34 -19 34 -27 0 -30 13 -24
102 9 121 -15 191 -77 223 -34 17 -126 26 -175 15z m85 -289 c0 -45 -19 -66
-54 -57 -43 11 -45 69 -3 86 46 18 57 13 57 -29z"/>
<path d="M6939 2323 l-66 -4 50 -132 c27 -73 62 -168 77 -212 l28 -80 53 -3
c28 -2 57 2 62 7 6 6 27 54 47 107 l37 97 30 -84 c17 -46 34 -94 37 -106 7
-20 14 -23 66 -23 l59 0 80 206 c45 113 81 209 81 215 0 5 -33 9 -73 9 l-73 0
-35 -107 -36 -108 -37 113 -38 112 -51 -6 c-29 -4 -55 -9 -58 -13 -3 -3 -21
-50 -39 -104 -18 -53 -35 -96 -37 -94 -2 2 -18 51 -36 108 -21 68 -38 104 -47
105 -8 0 -45 -1 -81 -3z"/>
<path d="M3972 2243 c-7 -25 -10 -48 -8 -51 3 -2 8 9 13 24 l7 29 7 -30 c6
-28 7 -28 8 10 1 62 -13 72 -27 18z"/>
<path d="M3780 2127 c0 -27 4 -46 9 -42 5 3 12 -3 14 -12 3 -12 5 -9 6 8 0 15
-6 42 -14 60 l-14 34 -1 -48z"/>
<path d="M3990 2115 c0 -36 3 -46 10 -35 9 13 11 13 21 0 8 -11 9 -7 5 20 -4
19 -13 41 -21 50 -13 13 -15 8 -15 -35z"/>
<path d="M3944 2088 c-11 -16 -12 -108 -1 -108 4 0 7 10 8 23 0 21 1 21 9 2 6
-13 7 -1 3 35 -7 63 -8 66 -19 48z"/>
<path d="M3830 2060 c0 -14 -3 -36 -6 -50 -4 -20 -3 -22 5 -10 9 13 11 12 11
-3 0 -10 4 -15 10 -12 10 6 3 59 -11 85 -6 11 -9 9 -9 -10z"/>
<path d="M3653 2008 c1 -25 4 -45 8 -42 4 2 10 -2 12 -8 3 -7 6 -3 6 8 1 12
-6 37 -14 55 l-14 34 2 -47z"/>
<path d="M3995 1945 c6 -26 14 -247 15 -387 0 -39 3 -46 16 -41 12 4 14 15 10
44 -3 22 -9 56 -12 78 -4 23 -2 41 5 45 6 4 12 17 12 29 1 12 5 4 9 -18 7 -39
7 -38 9 17 1 48 -2 60 -19 70 -21 13 -29 68 -10 68 16 0 12 22 -16 75 -19 37
-23 42 -19 20z m32 -217 c-2 -13 -4 -5 -4 17 -1 22 1 32 4 23 2 -10 2 -28 0
-40z"/>
<path d="M3770 1907 c0 -23 5 -34 15 -34 15 0 20 23 9 51 -11 27 -24 17 -24
-17z"/>
<path d="M3954 1845 c-3 -20 -4 -39 0 -42 3 -4 6 5 7 18 1 23 1 23 15 -6 l15
-30 -6 34 c-3 18 -5 40 -5 47 0 29 -19 13 -26 -21z"/>
<path d="M3730 1823 c0 -17 -3 -39 -7 -49 -4 -12 -3 -15 5 -10 7 4 12 1 12 -9
0 -9 4 -14 9 -10 10 6 3 71 -10 95 -6 11 -8 6 -9 -17z"/>
<path d="M3783 1740 c-6 -37 -5 -57 2 -62 13 -9 25 69 15 97 -6 15 -10 6 -17
-35z"/>
<path d="M3582 1727 c-30 -60 -28 -72 3 -18 14 24 24 48 23 53 -2 6 -14 -10
-26 -35z"/>
<path d="M4115 1731 c-4 -23 -4 -45 -1 -48 3 -4 6 2 6 13 0 16 2 17 10 4 7
-12 10 -8 10 15 0 52 -17 63 -25 16z"/>
<path d="M3598 1693 c-11 -29 -12 -70 -8 -173 4 -74 7 -106 8 -70 2 45 10 81
27 119 14 30 23 56 20 59 -2 3 -14 -15 -25 -39 -25 -55 -28 -20 -4 41 9 23 14
43 11 47 -3 3 -9 -6 -13 -21 -3 -14 -10 -26 -16 -26 -10 0 -3 31 19 73 7 15 9
27 4 27 -5 0 -15 -17 -23 -37z"/>
<path d="M3947 1668 c1 -18 2 -37 2 -42 1 -6 5 -6 11 0 10 10 3 74 -9 74 -3 0
-5 -15 -4 -32z"/>
<path d="M3710 1665 c0 -17 -3 -41 -6 -55 -4 -20 -3 -22 5 -10 9 12 11 11 11
-7 0 -13 4 -23 9 -23 10 0 2 102 -10 115 -5 5 -9 -3 -9 -20z"/>
<path d="M3813 1615 c0 -44 2 -61 4 -37 2 23 2 59 0 80 -2 20 -4 1 -4 -43z"/>
<path d="M3471 1565 c0 -53 3 -73 9 -60 5 11 9 38 9 60 0 22 -4 49 -9 60 -6
13 -9 -7 -9 -60z"/>
<path d="M3523 1555 c0 -44 2 -61 4 -37 2 23 2 59 0 80 -2 20 -4 1 -4 -43z"/>
<path d="M3567 1613 c-11 -10 -8 -131 3 -138 6 -4 10 22 10 69 0 76 -1 82 -13
69z"/>
<path d="M4128 1590 c-3 -18 0 -31 9 -34 9 -4 13 5 13 29 0 43 -16 46 -22 5z"/>
<path d="M3768 1600 c-12 -29 -17 -90 -7 -85 5 4 9 -2 9 -11 0 -14 3 -15 11
-7 9 9 9 27 2 65 -5 29 -12 46 -15 38z"/>
<path d="M3631 1534 c-12 -26 -20 -52 -18 -57 2 -6 13 14 25 43 28 67 21 79
-7 14z"/>
<path d="M3801 1497 c-1 -21 -5 -36 -10 -33 -10 7 -26 -72 -17 -81 3 -4 6 5 7
18 l1 24 7 -25 c6 -20 10 -11 16 42 4 36 5 72 2 80 -3 7 -6 -4 -6 -25z"/>
<path d="M3926 1498 c-3 -17 -4 -33 -1 -36 3 -3 5 1 6 9 0 8 4 6 9 -6 7 -16 9
-13 9 17 1 47 -15 58 -23 16z"/>
<path d="M3653 1503 c-3 -10 -12 -33 -20 -52 -7 -19 -11 -36 -9 -39 5 -4 27
43 40 86 9 26 -2 30 -11 5z"/>
<path d="M3705 1510 c-4 -7 -8 -34 -10 -61 -1 -27 -9 -57 -18 -67 -21 -25 -49
-83 -43 -89 3 -4 13 11 22 32 12 29 18 35 25 24 7 -12 9 -12 9 1 0 13 1 13 11
0 8 -11 9 -7 5 17 -7 41 2 71 16 51 5 -8 6 9 2 42 -8 62 -9 66 -19 50z"/>
<path d="M4720 1323 c0 -109 -3 -249 -7 -310 l-6 -113 49 0 49 0 -3 217 c-3
214 -2 218 16 198 11 -11 97 -110 192 -220 95 -110 176 -204 181 -209 6 -6 12
-6 18 0 5 5 11 147 14 317 l5 307 -46 0 -47 0 3 -222 c4 -223 4 -223 -16 -203
-11 11 -100 112 -197 225 -97 113 -183 206 -191 208 -12 3 -14 -28 -14 -195z"/>
<path d="M7835 1512 c-6 -4 -10 -119 -10 -310 l0 -302 43 0 42 0 0 310 0 310
-32 0 c-18 0 -37 -4 -43 -8z"/>
<path d="M9143 1514 c-8 -4 -10 -36 -6 -116 6 -107 5 -111 -13 -104 -43 18
-105 18 -149 2 -165 -63 -183 -329 -28 -398 56 -25 122 -20 164 11 34 25 39
26 39 6 0 -11 11 -15 41 -15 33 0 40 3 35 16 -3 9 -6 148 -6 310 l0 294 -32
-1 c-18 0 -38 -3 -45 -5z m-26 -299 c21 -14 23 -22 23 -111 0 -89 -2 -96 -26
-119 -37 -34 -77 -40 -122 -18 -50 24 -74 73 -69 136 9 108 111 166 194 112z"/>
<path d="M9683 1499 c-124 -48 -206 -170 -206 -306 0 -238 252 -386 470 -277
l58 29 3 140 3 140 -128 -3 -128 -3 1 -37 1 -37 82 -3 81 -3 0 -74 c0 -91 -10
-100 -121 -100 -67 0 -81 4 -124 30 -99 61 -136 204 -81 320 28 60 46 77 111
106 62 27 158 23 223 -10 24 -12 45 -21 46 -19 9 11 25 72 20 79 -2 5 -34 18
-70 29 -84 25 -173 25 -241 -1z"/>
<path d="M6500 1470 l0 -40 160 0 c88 0 160 -3 159 -7 0 -5 -80 -120 -178
-258 -102 -143 -175 -254 -171 -260 5 -6 97 -10 242 -9 l233 1 3 36 3 37 -175
0 -175 0 184 261 c102 144 182 265 179 270 -3 5 -108 9 -235 9 l-229 0 0 -40z"/>
<path d="M4001 1462 c0 -28 3 -41 10 -37 7 5 8 -5 4 -32 -4 -25 -3 -33 3 -24
8 11 11 11 16 0 3 -8 4 4 1 25 -2 22 -9 42 -14 45 -5 3 -11 20 -14 36 -3 24
-4 21 -6 -13z"/>
<path d="M3493 1430 c0 -36 2 -50 4 -32 2 17 2 47 0 65 -2 17 -4 3 -4 -33z"/>
<path d="M3510 1378 c0 -19 2 -20 10 -8 13 19 13 30 0 30 -5 0 -10 -10 -10
-22z"/>
<path d="M13680 1393 c-22 -9 -30 -24 -30 -60 0 -29 -3 -33 -25 -33 -18 0 -28
-7 -35 -26 -15 -39 -13 -44 25 -44 l35 0 0 -135 c0 -161 9 -188 70 -206 32
-10 47 -9 77 2 34 13 38 19 41 53 3 35 2 37 -17 27 -26 -15 -64 -14 -79 1 -8
8 -12 53 -12 135 l0 123 55 0 55 0 0 35 0 35 -55 0 -55 0 0 50 c0 52 -8 59
-50 43z"/>
<path d="M3560 1372 c0 -10 7 -19 15 -19 17 0 17 0 9 21 -8 22 -24 20 -24 -2z"/>
<path d="M3917 1373 c-4 -3 -7 -22 -6 -42 0 -20 3 -30 6 -23 2 6 9 10 14 6 5
-3 9 11 9 30 0 34 -8 44 -23 29z"/>
<path d="M4110 1299 c-15 -29 -26 -39 -38 -35 -67 20 -70 20 -96 -23 -24 -37
-28 -40 -52 -31 -38 15 -40 14 -68 -34 -25 -43 -26 -44 -63 -36 -21 5 -38 8
-38 7 -1 -1 -13 -19 -28 -39 -18 -24 -33 -35 -42 -32 -23 9 -19 -23 4 -36 16
-8 24 -4 51 30 30 37 34 40 70 34 37 -6 39 -5 60 36 21 40 22 41 60 35 36 -6
39 -5 60 33 l23 40 44 -13 44 -13 19 39 c22 43 23 43 51 29 15 -8 19 -7 19 3
0 16 -16 31 -42 40 -14 5 -23 -3 -38 -34z"/>
<path d="M5440 1294 c-67 -29 -102 -76 -120 -162 -31 -143 69 -262 209 -249
31 2 73 13 93 22 30 15 38 25 43 57 4 22 5 42 2 45 -3 3 -19 -4 -35 -16 -29
-20 -105 -42 -126 -36 -6 2 -24 6 -39 9 -16 4 -36 20 -47 39 -37 60 -33 63 96
71 72 4 128 13 146 22 31 16 32 29 7 110 -26 85 -137 128 -229 88z m129 -71
c12 -10 25 -33 30 -50 l10 -33 -105 0 c-57 0 -104 3 -104 8 0 16 40 66 62 78
33 19 82 17 107 -3z"/>
<path d="M7122 1299 c-45 -13 -105 -76 -120 -125 -28 -96 -5 -207 53 -252 60
-48 165 -53 244 -12 38 19 41 24 41 61 l0 40 -45 -26 c-51 -30 -136 -37 -173
-14 -21 13 -52 65 -52 87 0 5 55 12 121 16 150 9 174 20 165 79 -4 21 -16 57
-27 79 -33 65 -118 92 -207 67z m110 -70 c16 -9 48 -64 48 -84 0 -3 -47 -5
-105 -5 l-106 0 16 29 c31 61 96 87 147 60z"/>
<path d="M7499 1301 c-37 -12 -69 -30 -69 -41 0 -5 4 -20 10 -35 10 -25 10
-25 41 -9 49 25 118 22 141 -5 10 -13 18 -33 18 -46 0 -20 -6 -23 -64 -27
-116 -10 -179 -59 -178 -139 1 -55 27 -90 79 -107 47 -15 106 -4 144 27 22 18
23 18 44 -7 15 -18 31 -25 53 -24 42 1 52 8 52 38 0 19 -5 24 -25 24 l-25 0 0
128 c0 146 -12 183 -70 214 -36 19 -104 23 -151 9z m138 -258 c-16 -97 -157
-131 -157 -38 0 49 37 75 108 75 l55 0 -6 -37z"/>
<path d="M8066 1294 c-48 -15 -48 -16 -43 -51 4 -19 8 -37 10 -39 2 -2 18 3
34 11 61 31 138 20 154 -22 17 -45 12 -53 -34 -53 -66 0 -139 -26 -172 -60
-24 -25 -30 -40 -30 -75 0 -109 129 -161 217 -86 21 17 33 22 36 13 9 -29 35
-43 76 -40 36 3 41 6 44 30 3 23 -1 27 -25 30 l-28 3 0 132 c0 117 -2 134 -21
160 -44 60 -121 76 -218 47z m154 -248 c0 -61 -63 -109 -120 -91 -47 15 -48
84 -1 110 14 8 47 14 74 15 47 0 47 0 47 -34z"/>
<path d="M8575 1294 c-16 -8 -40 -24 -52 -35 l-21 -21 -7 31 c-6 28 -10 31
-46 31 l-39 0 0 -200 0 -200 45 0 45 0 0 131 0 131 34 34 c42 42 93 49 129 17
15 -14 17 -36 17 -165 l0 -148 45 0 45 0 -1 143 c0 79 -6 160 -13 182 -22 73
-109 107 -181 69z"/>
<path d="M10204 1291 c-99 -45 -148 -171 -109 -282 62 -175 307 -168 370 10
64 183 -94 348 -261 272z m123 -66 c33 -9 63 -58 69 -112 11 -102 -62 -176
-150 -152 -133 37 -92 298 44 273 8 -1 25 -5 37 -9z"/>
<path d="M11030 1295 c-101 -46 -150 -162 -116 -278 27 -93 108 -145 210 -134
28 3 68 13 88 22 32 16 37 22 40 61 2 24 2 44 0 44 -2 0 -16 -9 -31 -20 -28
-20 -104 -41 -125 -35 -6 2 -24 6 -39 9 -16 4 -36 20 -47 39 -37 60 -33 63 96
71 64 4 128 13 141 19 23 10 25 15 21 65 -5 56 -25 91 -71 126 -35 26 -121 31
-167 11z m113 -66 c25 -11 47 -47 47 -74 0 -12 -19 -15 -100 -15 -55 0 -100 2
-100 5 0 4 7 19 15 35 26 51 87 72 138 49z"/>
<path d="M11516 1300 c-16 -5 -41 -21 -56 -35 -29 -28 -40 -24 -40 12 0 24
-14 28 -57 17 -23 -6 -23 -8 -23 -200 l0 -194 45 0 45 0 0 134 c0 132 0 135
25 154 14 11 43 23 65 27 36 6 40 10 40 35 0 16 3 35 6 44 7 18 -5 19 -50 6z"/>
<path d="M11783 1296 c-18 -8 -44 -26 -58 -40 l-25 -25 0 35 c0 35 0 35 -40
32 l-41 -3 -2 -198 -2 -197 45 0 45 0 -3 119 c-4 144 6 172 74 202 38 17 48
18 71 7 38 -18 46 -62 40 -205 l-6 -123 45 0 44 0 0 150 c0 159 -8 198 -48
234 -28 24 -98 30 -139 12z"/>
<path d="M12230 1299 c-14 -5 -37 -22 -52 -36 l-28 -27 0 32 c0 31 -2 32 -40
32 l-40 0 0 -200 0 -200 45 0 45 0 0 140 c0 140 0 141 26 165 26 24 47 30 89
26 39 -3 45 -27 45 -183 l0 -148 45 0 45 0 0 140 c0 140 0 141 26 165 26 24
47 30 89 26 39 -3 45 -27 45 -183 l0 -148 45 0 45 0 0 143 c0 159 -8 203 -46
238 -21 20 -36 24 -84 24 -50 0 -63 -4 -96 -31 l-38 -30 -26 29 c-29 32 -95
45 -140 26z"/>
<path d="M12855 1292 c-132 -63 -167 -243 -69 -351 57 -64 161 -78 250 -35 35
17 39 23 42 61 l3 42 -46 -26 c-90 -50 -186 -28 -211 48 l-12 34 122 8 c140
10 166 21 166 70 0 42 -37 115 -72 141 -39 28 -122 32 -173 8z m136 -81 c16
-16 29 -39 29 -50 0 -20 -5 -21 -100 -21 -62 0 -100 4 -100 10 0 19 33 61 59
75 42 23 79 18 112 -14z"/>
<path d="M13340 1299 c-14 -6 -40 -24 -57 -42 l-33 -31 0 37 c0 36 -1 37 -40
37 l-40 0 0 -200 0 -200 45 0 45 0 0 131 0 131 34 34 c45 45 97 49 129 11 16
-19 18 -37 15 -164 l-3 -143 45 0 45 0 -3 157 c-3 104 -9 169 -18 191 -21 52
-100 76 -164 51z"/>
<path d="M3661 1282 c-19 -36 -31 -72 -23 -72 8 0 44 82 38 88 -3 2 -9 -5 -15
-16z"/>
<path d="M5715 1290 c-3 -5 18 -74 48 -152 30 -79 62 -167 72 -195 15 -47 20
-53 43 -53 26 0 29 7 71 130 24 72 47 132 51 135 5 3 76 -183 96 -253 2 -8 15
-12 31 -10 26 3 31 13 94 193 37 105 68 196 68 203 1 8 -13 12 -39 12 -24 0
-42 -5 -44 -12 -3 -7 -21 -67 -41 -133 l-37 -120 -47 130 c-45 127 -47 130
-78 133 l-31 3 -43 -130 c-24 -72 -46 -127 -50 -123 -3 4 -23 62 -44 130 l-39
122 -37 0 c-21 0 -41 -4 -44 -10z"/>
<path d="M10504 1294 c-7 -3 16 -66 61 -167 40 -89 78 -179 86 -200 12 -34 17
-38 43 -35 29 3 33 10 113 203 46 110 83 201 83 202 0 2 -20 3 -44 3 l-43 0
-54 -142 c-41 -109 -55 -137 -61 -122 -4 10 -30 73 -56 139 -48 119 -48 120
-83 122 -19 1 -39 0 -45 -3z"/>
<path d="M4250 1268 c-6 -7 -31 -43 -54 -80 -24 -37 -46 -65 -50 -61 -4 4 -4
0 0 -10 5 -13 2 -16 -10 -11 -12 5 -15 2 -10 -10 5 -12 2 -15 -11 -10 -15 6
-16 4 -5 -17 l13 -24 -23 20 -23 20 8 -25 c7 -22 6 -23 -9 -11 -19 16 -20 12
-6 -23 13 -34 5 -33 -14 2 l-15 27 -1 -32 c0 -38 30 -63 75 -63 l30 1 -25 14
-25 14 30 1 30 1 -25 14 -25 14 30 1 c23 0 27 3 15 10 -12 8 -12 10 5 10 20 1
20 1 1 15 -17 13 -17 15 -3 15 10 0 14 5 11 15 -4 8 -1 15 6 15 6 0 9 4 6 9
-3 5 1 11 9 15 8 3 15 14 15 24 0 10 4 22 8 28 5 5 21 30 36 57 26 45 28 60 6
35z"/>
<path d="M3661 1204 c-28 -61 -20 -69 9 -9 12 25 20 48 17 51 -3 3 -15 -16
-26 -42z"/>
<path d="M4011 1004 c-1 -42 26 -71 72 -80 47 -8 47 -1 -2 26 -21 12 -45 36
-54 54 l-16 31 0 -31z"/>
<path d="M3521 945 c0 -12 -5 -26 -11 -33 -5 -7 -3 -6 6 2 9 7 14 22 11 32 -4
17 -5 17 -6 -1z"/>
</g>
</svg>
