<?xml version="1.0" encoding="utf-8"?>
<!-- Generator: Adobe Illustrator 27.5.0, SVG Export Plug-In . SVG Version: 6.00 Build 0)  -->
<svg version="1.1" id="Layer_1" xmlns="http://www.w3.org/2000/svg" xmlns:xlink="http://www.w3.org/1999/xlink" x="0px" y="0px"
	 viewBox="0 0 180 40" style="enable-background:new 0 0 180 40;" xml:space="preserve">
<style type="text/css">
	.st0{fill:#FFFFFF;}
</style>
<g>
	<polygon class="st0" points="61.3,21.2 61.2,20.7 64.7,26.9 64.7,26.9 66.1,26.9 66.1,19.7 65.2,19.7 65.2,25.4 65.3,26.1 
		61.7,19.7 61.7,19.7 60.3,19.7 60.3,26.9 61.3,26.9 	"/>
	<polygon class="st0" points="72.3,20.4 72.3,20.4 72.3,19.7 67.8,19.7 67.8,20.5 71.2,20.5 67.5,26.1 67.5,26.2 67.5,26.9 
		72.5,26.9 72.5,26.1 68.5,26.1 	"/>
	<polygon class="st0" points="81.1,19.7 75.3,19.7 75.3,20.5 77.7,20.5 77.7,26.9 78.6,26.9 78.6,20.5 81.1,20.5 	"/>
	<path class="st0" d="M86,22c0,1-0.6,1.5-1.9,1.5h-1v-3h1.2c0.6,0,1,0.1,1.2,0.4C85.8,21,86,21.4,86,22 M87.8,27.1l0.2-0.8h-0.1
		c-0.2,0-0.4-0.1-0.6-0.3c-0.3-0.2-0.6-0.4-0.8-0.7L85.6,24c0.9-0.4,1.4-1.1,1.4-2c0-1.5-0.8-2.2-2.4-2.2h-2.4v7.3h0.9v-2.7H84
		c0.2,0,0.4,0,0.6,0L86,26C86.6,26.6,87.2,27,87.8,27.1L87.8,27.1z"/>
	<path class="st0" d="M90.7,23.5l1.2-3.1l1.1,3.1H90.7z M90.4,24.3h2.8l0.9,2.7h1l-2.5-7.2l0,0h-1.4l-2.9,7.3h0.9L90.4,24.3z"/>
	<polygon class="st0" points="100.9,25.4 101,26.1 97.4,19.7 97.4,19.7 96.1,19.7 96.1,26.9 97,26.9 97,21.2 97,20.7 100.4,26.9 
		100.4,26.9 101.8,26.9 101.8,19.7 100.9,19.7 	"/>
	<path class="st0" d="M107,23.3l-1.7-0.9c-0.6-0.3-0.9-0.7-0.9-1.1c0-0.6,0.4-0.9,1.3-0.9c0.6,0,1.1,0.1,1.5,0.2h0.1l0.3-0.7h-0.1
		c-0.4-0.2-1-0.3-1.8-0.3c-0.6,0-1.1,0.1-1.5,0.4s-0.7,0.8-0.7,1.4c0,0.7,0.3,1.2,0.9,1.7c0.6,0.3,1.1,0.6,1.7,0.8
		c0.6,0.3,0.9,0.7,0.9,1.2c0,0.4-0.2,0.7-0.5,0.9c-0.3,0.2-0.7,0.3-1.2,0.3s-1.1-0.1-1.7-0.4h-0.1l-0.3,0.8l0,0
		c0.1,0.1,0.3,0.2,0.7,0.3c0.4,0.1,0.9,0.2,1.4,0.2c0.8,0,1.4-0.2,1.8-0.5c0.5-0.4,0.8-0.9,0.8-1.6C107.9,24.3,107.6,23.8,107,23.3"
		/>
	<path class="st0" d="M112.6,23.1c-0.3,0.2-0.7,0.3-1.3,0.3h-1v-3h1.2c0.6,0,1,0.1,1.2,0.4c0.3,0.2,0.4,0.6,0.4,1.2
		C113.2,22.5,113,22.8,112.6,23.1 M111.8,19.7h-2.4V27h0.9v-2.7h0.9c0.9,0,1.7-0.2,2.2-0.7c0.5-0.4,0.7-1,0.7-1.6
		C114.1,20.4,113.3,19.7,111.8,19.7"/>
	<path class="st0" d="M121.4,23.3c0,0.9-0.2,1.6-0.7,2.1c-0.5,0.6-1.2,0.8-2.1,0.8c-0.8,0-1.5-0.3-2-0.9c-0.4-0.5-0.7-1.2-0.7-2.1
		s0.2-1.5,0.7-2.1c0.5-0.5,1.2-0.8,2-0.8s1.5,0.3,2,0.8C121.1,21.8,121.4,22.5,121.4,23.3 M118.8,19.6c-1.1,0-2,0.3-2.7,1
		s-1,1.6-1,2.7s0.3,2,0.9,2.7s1.5,1.1,2.6,1.1s2.1-0.3,2.7-1c0.7-0.7,1-1.6,1-2.7s-0.3-2-0.9-2.7C120.8,19.9,119.9,19.6,118.8,19.6"
		/>
	<path class="st0" d="M124.3,20.5h1.2c0.6,0,1,0.1,1.2,0.4c0.3,0.2,0.4,0.6,0.4,1.2c0,1-0.6,1.5-1.9,1.5h-1v-3.1H124.3z M128.6,25.9
		c-0.3-0.2-0.6-0.4-0.8-0.7l-1.1-1.3c0.9-0.4,1.4-1.1,1.4-2c0-1.5-0.8-2.2-2.4-2.2h-2.4V27h0.9v-2.7h0.9c0.2,0,0.4,0,0.6,0l1.4,1.8
		c0.6,0.7,1.2,1.1,1.8,1.1l0,0l0.2-0.8H129C129.1,26.2,128.9,26.1,128.6,25.9"/>
	<polygon class="st0" points="129.1,19.7 129.1,20.5 131.5,20.5 131.5,26.9 132.4,26.9 132.4,20.5 134.9,20.5 134.9,19.7 	"/>
	<path class="st0" d="M64,33.4h-2.3l1.2-3.1L64,33.4z M63.6,29.5h-1.4l-2.9,7.3h0.9l1-2.7h2.9l0.9,2.7h1L63.6,29.5L63.6,29.5z"/>
	<path class="st0" d="M71.6,36c-0.3,0.1-0.7,0.1-1.1,0.1c-0.9,0-1.6-0.2-2.1-0.7c-0.6-0.5-0.9-1.3-0.9-2.2c0-1,0.3-1.7,0.8-2.2
		c0.5-0.4,1.1-0.6,1.9-0.6c0.7,0,1.3,0.1,1.8,0.3h0.1l0.3-0.8h-0.1c-0.5-0.2-1.2-0.3-2.1-0.3c-1.2,0-2.1,0.3-2.7,1s-1,1.6-1,2.7
		s0.3,2,1,2.6c0.7,0.7,1.6,1.1,2.8,1.1c0.8,0,1.5-0.1,2.2-0.3l0,0v-2.9h-0.9L71.6,36L71.6,36z"/>
	<polygon class="st0" points="74.9,33.6 77.9,33.6 77.9,32.8 74.9,32.8 74.9,30.3 78.1,30.3 78.1,29.5 74,29.5 74,36.8 78.3,36.8 
		78.3,36 74.9,36 	"/>
	<polygon class="st0" points="84.5,35.2 84.5,36 81,29.6 81,29.5 79.6,29.5 79.6,36.8 80.6,36.8 80.6,31.1 80.5,30.5 84,36.8 
		84,36.8 85.4,36.8 85.4,29.5 84.5,29.5 	"/>
	<path class="st0" d="M92.1,35.9c-0.4,0.1-0.9,0.2-1.6,0.2c-0.9,0-1.6-0.2-2.1-0.7c-0.6-0.5-0.9-1.3-0.9-2.2c0-1,0.3-1.7,0.8-2.2
		c0.5-0.4,1.1-0.6,1.9-0.6c0.7,0,1.3,0.1,1.8,0.3h0.1l0.3-0.8h-0.1c-0.5-0.2-1.2-0.3-2.1-0.3c-1.2,0-2.1,0.3-2.7,1s-1,1.6-1,2.7
		s0.3,2,1,2.6c0.7,0.7,1.6,1.1,2.8,1.1c0.8,0,1.5-0.1,2.1-0.3h0.1L92.1,35.9L92.1,35.9z"/>
	<polygon class="st0" points="96,33.2 94.2,29.6 94.2,29.5 93.1,29.5 95.5,34 95.5,36.8 96.4,36.8 96.4,34 98.9,29.6 99,29.5 
		97.9,29.5 	"/>
	<polygon class="st0" points="121.9,0.6 119.8,0.6 114.1,7.1 114.1,7.1 114.1,7.5 120.1,14.8 120.1,14.8 122.4,14.8 116,7.2 	"/>
	<rect x="112" y="0.6" class="st0" width="1.7" height="14.3"/>
	<path class="st0" d="M135.2,7.7c0,1.7-0.4,3.2-1.3,4.2c-1,1.1-2.4,1.7-4.2,1.7c-1.7,0-3-0.6-4-1.8c-0.9-1.1-1.3-2.5-1.3-4.2
		s0.5-3.1,1.4-4.1c1-1.1,2.3-1.7,4.1-1.7c1.7,0,3,0.6,4,1.7C134.8,4.6,135.2,6,135.2,7.7 M130.1,0.3c-2.2,0-4,0.7-5.3,2
		s-2,3.1-2,5.3s0.6,4,1.8,5.3c1.3,1.4,3,2.1,5.1,2.1c2.2,0,4-0.7,5.3-2s2-3.1,2-5.3s-0.6-3.9-1.7-5.3C134,1,132.3,0.3,130.1,0.3"/>
	<polygon class="st0" points="148.8,0.6 137.4,0.6 137.4,2 142.2,2 142.2,14.8 143.9,14.8 143.9,2 148.8,2 	"/>
	<path class="st0" d="M157.3,8.1h-4.7l2.5-6.5L157.3,8.1z M156.5,0.6h-2.6l-5.6,14.2v0.1h1.7l2.1-5.3h5.8l1.8,5.3h1.8L156.5,0.6
		L156.5,0.6z"/>
	<polygon class="st0" points="172.7,7 165,7 165,0.6 163.3,0.6 163.3,14.8 165,14.8 165,8.4 172.7,8.4 172.7,14.8 174.4,14.8 
		174.4,0.6 172.7,0.6 	"/>
	<rect x="178.3" y="0.6" class="st0" width="1.7" height="14.3"/>
	<path class="st0" d="M33.6,39.8c-4.4-0.5-4.8-8.6-5.3-17.3c-0.1-0.9-0.1-1.9-0.2-2.8C27.5,9.9,26.3,0.2,19,0.2C5,0.2,0,22.5,0,22.5
		h23l-0.3-2.8H4.1C7.3,5.8,21-4.2,23.9,19.7l0.3,2.8C25.2,31.9,27.9,39.5,33.6,39.8C33.8,39.8,33.7,39.8,33.6,39.8"/>
	<path class="st0" d="M34.8,19.7l0.6,2.8h15.3c-0.7,4.7-13.4,17.9-16.6,0l-0.6-2.8c-0.5-2-2-17.5-11.1-19.3c-0.2,0-0.4-0.1-0.6-0.1
		h-0.1l0,0c6.2,1,7.3,10.1,7.9,19.4c0.1,0.9,0.1,1.9,0.2,2.8c0.5,9,0.9,17.3,5.7,17.3c8.4,0,16.8-11.3,18.4-20.1
		C53.9,19.7,34.8,19.7,34.8,19.7z"/>
	<polygon class="st0" points="38.7,0.4 42.1,0.4 44.4,12.8 47.8,3.9 46.6,0.4 50.1,0.4 53.9,12.7 56.7,0.4 60.1,0.4 56.1,15 
		51.7,15 49.1,7.5 46.4,15 41.9,15 	"/>
	<path class="st0" d="M68.8,8.2l-1.5-5.6l-1.7,5.6H68.8z M65.2,0.4h4.5l5,14.6H71l-1.4-4.3h-4.9L63.1,15h-3.5L65.2,0.4z"/>
	<polygon class="st0" points="76.5,0.4 80,0.4 80,6.7 85.1,0.4 89.6,0.4 83.6,7.2 89.9,15 85.4,15 80,7.7 80,15 76.5,15 	"/>
	<path class="st0" d="M99.5,8.2L98,2.6l-1.7,5.6H99.5z M95.9,0.4h4.5l4.9,14.6h-3.6l-1.4-4.3h-4.9L93.8,15h-3.5L95.9,0.4z"/>
</g>
</svg>
